<svg id="Capa_1" enable-background="new 0 0 512 512" height="512" viewBox="0 0 512 512" width="512" xmlns="http://www.w3.org/2000/svg"><g><g><path d="m485.884 54.027h-33.866v-27.161c0-14.814-12.073-26.866-26.911-26.866h-342.555c-14.823 0-26.883 12.052-26.883 26.866v27.161h-29.553c-14.4 0-26.116 11.709-26.116 26.101v102.3c0 5.522 4.478 10 10 10s10-4.478 10-10v-102.3c0-3.307 2.801-6.101 6.116-6.101h29.553v258.669h-35.669v-60.469c0-5.522-4.478-10-10-10s-10 4.478-10 10v102.301c0 14.392 11.716 26.101 26.116 26.101h145.556l-20.145 40.802h-16.399c-19.47 0-35.31 15.829-35.31 35.285v25.284c0 5.522 4.478 10 10 10h292.363c5.522 0 10-4.478 10-10v-25.284c0-19.456-15.84-35.285-35.31-35.285h-16.401l-20.164-40.802h145.577c14.4 0 26.116-11.709 26.116-26.101v-294.4c.001-14.392-11.715-26.101-26.115-26.101zm-410.215-27.161c0-3.722 3.152-6.866 6.883-6.866h342.556c3.746 0 6.91 3.145 6.91 6.866v53.607h-356.349zm0 73.608h356.349v232.223h-356.349zm316.513 376.242v15.284h-272.364v-15.284c0-8.429 6.868-15.285 15.31-15.285h241.744c8.441 0 15.31 6.856 15.31 15.285zm-54.021-35.285h-164.329l20.145-40.802h124.021zm153.839-66.903c0 3.307-2.801 6.101-6.116 6.101h-459.768c-3.315 0-6.116-2.794-6.116-6.101v-21.832h472zm0-41.832h-39.982v-258.669h33.866c3.315 0 6.116 2.794 6.116 6.101z"/><path d="m354.627 40.223h-.057c-5.522 0-9.972 4.478-9.972 10s4.506 10 10.028 10 10-4.478 10-10-4.477-10-9.999-10z"/><path d="m395.911 40.223h-.058c-5.522 0-9.972 4.478-9.972 10s4.507 10 10.029 10 10-4.478 10-10-4.476-10-9.999-10z"/><path d="m313.343 40.223h-.057c-5.522 0-9.972 4.478-9.972 10s4.506 10 10.028 10 10-4.478 10-10-4.477-10-9.999-10z"/><path d="m226.719 40.223h-114.943c-5.522 0-10 4.478-10 10s4.478 10 10 10h114.942c5.522 0 10-4.478 10-10s-4.477-10-9.999-10z"/><path d="m339.702 203.682h57.116c3.297 0 6.383-1.625 8.247-4.345 1.865-2.72 2.27-6.184 1.081-9.259-10.91-28.241-38.581-47.215-68.855-47.215-27.942 0-53.666 16.146-66.052 40.818h-34.813c-12.361-24.672-38.075-40.818-66.029-40.818-30.308 0-57.979 18.978-68.86 47.224-1.185 3.075-.777 6.537 1.088 9.254 1.864 2.717 4.948 4.341 8.244 4.341h49.513c7.127 0 12.926 5.788 12.926 12.903 0 7.1-5.799 12.875-12.926 12.875h-49.513c-3.295 0-6.378 1.623-8.243 4.339s-2.273 6.177-1.09 9.252c10.874 28.266 38.548 47.256 68.861 47.256 27.96 0 53.675-16.158 66.032-40.847h34.808c12.382 24.689 38.106 40.847 66.055 40.847 30.28 0 57.952-18.987 68.856-47.247 1.188-3.075.782-6.538-1.083-9.257-1.864-2.718-4.949-4.343-8.246-4.343h-57.116c-7.111 0-12.897-5.775-12.897-12.875-.001-7.115 5.785-12.903 12.896-12.903zm0 45.778h40.068c-10.05 12.864-25.716 20.847-42.479 20.847-22.091 0-42.276-13.843-50.228-34.447-1.488-3.856-5.195-6.399-9.329-6.399h-47.81c-4.138 0-7.848 2.548-9.333 6.409-7.925 20.599-28.097 34.438-50.195 34.438-16.783 0-32.456-7.983-42.495-20.847h32.479c18.155 0 32.926-14.748 32.926-32.875 0-18.143-14.771-32.903-32.926-32.903h-32.469c10.042-12.847 25.709-20.818 42.484-20.818 22.096 0 42.269 13.829 50.196 34.413 1.487 3.859 5.196 6.405 9.332 6.405h47.81c4.132 0 7.839-2.541 9.328-6.396 7.955-20.59 28.141-34.423 50.229-34.423 16.755 0 32.416 7.972 42.469 20.818h-40.058c-18.14 0-32.897 14.761-32.897 32.903.001 18.127 14.758 32.875 32.898 32.875z"/><path d="m10 237.356c5.522 0 10-4.506 10-10.028s-4.478-10-10-10-10 4.478-10 10v.057c0 5.522 4.478 9.971 10 9.971z"/></g></g></svg>