<svg id="svg-about" enable-background="new 0 0 512 512" height="512" viewBox="0 0 512 512" width="512" xmlns="http://www.w3.org/2000/svg">
<g><path d="m212.977 194.165c4.15 0 7.515-3.364 7.515-7.515v-13.406c0-4.15-3.365-7.515-7.515-7.515s-7.515 3.365-7.515 7.515v13.406c0 4.151 3.365 7.515 7.515 7.515z"/>
<path d="m299.023 194.165c4.15 0 7.515-3.364 7.515-7.515v-13.406c0-4.15-3.364-7.515-7.515-7.515-4.15 0-7.515 3.365-7.515 7.515v13.406c0 4.151 3.365 7.515 7.515 7.515z"/>
<path d="m392.531 338.504c-2.404-3.383-7.095-4.177-10.478-1.773-3.384 2.404-4.178 7.095-1.774 10.478 16.089 22.645 24.593 49.352 24.593 77.233v26.807h-56.83v-35.453c0-4.15-3.365-7.515-7.515-7.515s-7.515 3.365-7.515 7.515v42.968 38.207h-89.977c-4.15 0-7.515 3.365-7.515 7.515s3.365 7.515 7.515 7.515h169.351c4.15 0 7.515-3.365 7.515-7.515v-80.044c0-31.019-9.464-60.736-27.37-85.938zm12.341 158.467h-56.83v-30.693h56.83z"/>
<path d="m212.977 496.971h-33.989v-38.207-42.968c0-4.15-3.364-7.515-7.515-7.515-4.15 0-7.515 3.365-7.515 7.515v35.453h-56.83v-26.807c0-30.84 10.762-60.922 30.304-84.704 17.278-21.027 40.668-36.318 66.599-43.72 3.098 25.933 25.215 46.109 51.968 46.109 26.754 0 48.871-20.177 51.969-46.111 19.791 5.638 38.113 15.844 53.434 29.846 3.055 2.794 7.81 2.592 10.617-.477 2.8-3.064 2.586-7.817-.477-10.617-15.374-14.051-33.475-24.653-53.041-31.199 17.079-13.222 29.879-31.716 35.927-53.025 3.405 1.013 6.954 1.542 10.553 1.542 20.42 0 37.033-16.612 37.033-37.032 0-7.992-2.553-15.394-6.875-21.452 18.55-46.048 18.636-90.844.095-123.481-11.407-20.079-28.871-33.071-47.916-35.645-20.021-2.706-35.657 1.788-43.902 5.108-2.14-2.489-5.204-5.385-9.493-8.166-12.728-8.254-30.399-12.069-52.527-11.327-18.337.611-35.57 7.839-54.232 22.747-3.243 2.59-3.771 7.319-1.181 10.562 2.589 3.242 7.317 3.771 10.562 1.181 16.004-12.785 30.415-18.971 45.353-19.469 41.442-1.366 51.361 15.68 52.035 16.946 1.499 4.263 6.991 5.964 10.746 3.488.16-.096 16.269-9.466 40.627-6.174 14.356 1.94 27.791 12.209 36.861 28.174 7.534 13.262 22.004 49.197 1.037 105.29-5.384-3.057-11.6-4.813-18.222-4.813-2.247 0-4.486.213-6.686.617v-1.24c0-10.458-4.336-20.456-11.895-27.429-17.167-15.837-36.606-43.759-44.168-55.029-4.225-6.674-14.488-7.4-19.658-1.443-38.979 42.573-90.382 56.389-110.673 60.353-10.544 2.06-18.198 11.362-18.198 22.12v2.669c-2.2-.404-4.438-.617-6.685-.617-4.044 0-7.936.661-11.582 1.865-6.77-11.058-21.98-39.835-23.596-77.388 6.808.695 16.372.909 25.443-1.538 13.152-3.546 25.491-15.314 37.424-26.695 3.003-2.864 3.116-7.621.251-10.624-2.864-3.003-7.62-3.116-10.624-.251-10.572 10.083-21.504 20.509-30.964 23.06-12.5 3.369-27.291-.023-27.428-.055-4.508-1.194-9.304 2.535-9.253 7.2-.669 45.495 17.287 80.146 25.699 93.835-7.604 6.787-12.403 16.653-12.403 27.624 0 20.42 16.612 37.032 37.032 37.032 3.598 0 7.147-.528 10.552-1.541 6.047 21.305 18.844 39.796 35.918 53.018-26.286 8.822-49.89 24.998-67.669 46.635-21.746 26.463-33.722 59.934-33.722 94.245v80.044c0 4.15 3.364 7.515 7.515 7.515h113.363c4.15 0 7.515-3.365 7.515-7.515.001-4.155-3.363-7.519-7.513-7.519zm108.553-274.36 21.736-30.158v10.194c0 11.822-2.368 23.101-6.646 33.393-4.027-4.012-9.119-8.698-15.09-13.429zm43.451-49.561c12.132 0 22.003 9.87 22.003 22.003s-9.871 22.003-22.003 22.003c-2.583 0-5.124-.454-7.519-1.327.549-4.285.833-8.651.833-13.083v-28.554c2.152-.684 4.411-1.042 6.686-1.042zm-190.197-24.45c21.385-4.178 75.031-18.588 116.742-62.662 8.835 12.991 27.591 39.309 44.684 55.078 4.484 4.137 7.056 10.108 7.056 16.383v9.349l-33.939 47.09c-14.934-9.654-33.322-17.63-53.327-17.63-20.007 0-38.394 7.976-53.328 17.629l-33.938-47.09v-10.778c0-3.585 2.544-6.684 6.05-7.369zm.596 87.439c-4.279-10.292-6.647-21.57-6.647-33.393v-10.194l21.736 30.158c-5.971 4.732-11.063 9.418-15.089 13.429zm-28.361-18.983c-12.133 0-22.003-9.87-22.003-22.003s9.87-22.003 22.003-22.003c2.275 0 4.533.357 6.685 1.042v28.554c0 4.432.284 8.798.834 13.083-2.396.873-4.936 1.327-7.519 1.327zm35.718 32.951c5.483-5.805 14.032-13.974 24.819-21.417 16.689-11.514 32.988-17.353 48.444-17.353 32.591 0 61.172 25.982 73.261 38.771-15.566 23.996-42.589 39.904-73.261 39.904-30.672.001-57.696-15.908-73.263-39.905zm73.263 54.935c12.792 0 25.04-2.367 36.338-6.675-3.856 16.5-18.679 28.831-36.338 28.831-17.658 0-32.481-12.331-36.338-28.831 11.298 4.308 23.546 6.675 36.338 6.675zm-92.042 192.029h-56.83v-30.693h56.83z"/>
</g></svg>
