<?xml version="1.0" encoding="UTF-8" standalone="no"?>
<svg
   xmlns:dc="http://purl.org/dc/elements/1.1/"
   xmlns:cc="http://creativecommons.org/ns#"
   xmlns:rdf="http://www.w3.org/1999/02/22-rdf-syntax-ns#"
   xmlns:svg="http://www.w3.org/2000/svg"
   xmlns="http://www.w3.org/2000/svg"
   xmlns:sodipodi="http://sodipodi.sourceforge.net/DTD/sodipodi-0.dtd"
   xmlns:inkscape="http://www.inkscape.org/namespaces/inkscape"
   id="svg-ai"
   height="512"
   viewBox="0 0 512 512"
   width="512"
   version="1.1"
   sodipodi:docname="ai.svg"
   inkscape:version="1.0.1 (1.0.1+r74)">
  <metadata
     id="metadata27">
    <rdf:RDF>
      <cc:Work
         rdf:about="">
        <dc:format>image/svg+xml</dc:format>
        <dc:type
           rdf:resource="http://purl.org/dc/dcmitype/StillImage" />
        <dc:title></dc:title>
      </cc:Work>
    </rdf:RDF>
  </metadata>
  <defs
     id="defs25" />
  <sodipodi:namedview
     pagecolor="#ffffff"
     bordercolor="#666666"
     borderopacity="1"
     objecttolerance="10"
     gridtolerance="10"
     guidetolerance="10"
     inkscape:pageopacity="0"
     inkscape:pageshadow="2"
     inkscape:window-width="1848"
     inkscape:window-height="1016"
     id="namedview23"
     showgrid="false"
     fit-margin-top="11"
     fit-margin-left="21.1"
     fit-margin-right="21.1"
     fit-margin-bottom="0"
     inkscape:zoom="0.5"
     inkscape:cx="311.76801"
     inkscape:cy="324.99724"
     inkscape:window-x="72"
     inkscape:window-y="27"
     inkscape:window-maximized="1"
     inkscape:current-layer="svg-ai"
     inkscape:document-rotation="0"
     units="px"
     scale-x="1"
     lock-margins="false"
     inkscape:lockguides="true"
     viewbox-width="512" />
  <path
     d="m 405.32327,215.337 h 24.52044 c 4.51376,0 8.17348,-3.6597 8.17348,-8.17348 v -24.52044 c 0,-4.51377 -3.65972,-8.17347 -8.17348,-8.17347 -4.51378,0 -8.17348,3.6597 -8.17348,8.17347 v 16.34697 h -16.34696 c -4.51378,0 -8.17348,3.6597 -8.17348,8.17347 0,4.51378 3.6597,8.17348 8.17348,8.17348 z m 0,0"
     id="path2"
     style="stroke-width:1.02168" />
  <path
     d="m 213.03497,182.64308 c 18.0551,0 32.69393,-14.63883 32.69393,-32.69391 0,-18.05509 -14.63883,-32.69393 -32.69393,-32.69393 -18.05908,0 -32.69391,14.63884 -32.69391,32.69393 0,18.05508 14.63483,32.69391 32.69391,32.69391 z m 0,-49.04087 c 9.02755,0 16.34696,7.31941 16.34696,16.34696 0,9.02755 -7.31941,16.34695 -16.34696,16.34695 -9.03153,0 -16.34696,-7.3194 -16.34696,-16.34695 0,-9.02755 7.31543,-16.34696 16.34696,-16.34696 z m 0,0"
     id="path4"
     style="stroke-width:1.02168" />
  <path
     d="m 34.491533,179.92923 c 3.460157,1.78796 7.303445,2.71785 11.198622,2.71385 10.404426,0 19.659451,-6.60502 23.047766,-16.44673 l 64.278359,-0.99375 -11.21459,9.26701 c -3.089,2.53824 -3.8872,6.93628 -1.88772,10.39643 l 15.2734,26.38422 0.33524,36.78066 H 94.731036 c -0.478916,0.0479 -0.953853,0.14367 -1.416795,0.28735 -3.85925,-11.36225 -15.373173,-18.26262 -27.214336,-16.30706 -11.837174,1.95557 -20.521487,12.19238 -20.521487,24.19319 0,12.0008 8.684313,22.23761 20.521487,24.19318 11.841163,1.95557 23.355086,-4.94481 27.214336,-16.30705 0.462942,0.14367 0.937879,0.23946 1.416795,0.28735 h 49.040884 c 2.17907,0 4.27031,-0.87002 5.80285,-2.41852 1.53652,-1.54849 2.39059,-3.64774 2.37063,-5.82679 l -0.37515,-41.42615 26.15273,-9.80577 c 1.77598,1.14939 3.5799,2.19902 5.40377,3.15285 l 5.51549,33.13693 c 0.65852,3.93907 4.07078,6.82852 8.06972,6.82452 h 4.27433 v 40.8674 h -24.52044 c -4.51378,0 -8.17349,3.65971 -8.17349,8.17347 V 416.28966 L 97.125604,487.4564 c -2.3387,2.3387 -3.037121,5.85474 -1.771991,8.90781 1.265129,3.05308 4.246377,5.04458 7.550897,5.04458 h 261.55136 c 3.30452,0 6.28576,-1.9915 7.54691,-5.04458 1.26513,-3.05307 0.56671,-6.56911 -1.768,-8.90781 l -54.81979,-54.81978 v -43.39368 l 18.29854,-30.47893 c 30.87404,18.62979 49.53975,28.21606 55.26278,28.21606 h 49.04088 c 4.51377,0 8.17348,-3.65971 8.17348,-8.17348 v -45.65654 l 13.94439,-13.94441 c 1.52854,-1.53651 2.39458,-3.6158 2.40256,-5.78689 v -24.52044 h 11.94095 c 5.53147,0 10.69177,-2.79765 13.70893,-7.43913 3.01317,-4.6375 3.48011,-10.48824 1.23322,-15.54478 l -25.41443,-57.21436 c 9.64615,-11.48597 14.9142,-26.00907 14.8783,-41.00707 0.18358,-54.09743 -30.4071,-103.589297 -78.87328,-127.618849 l -23.70629,-11.86911 c -3.59585,-1.791934 -7.96196,-0.706393 -10.29666,2.566187 l -3.42425,4.749242 H 307.24152 V 19.173479 C 307.24152,14.659706 303.5818,11 299.06804,11 h -81.7348 c -4.51377,0 -8.17348,3.659706 -8.17348,8.173479 v 32.693917 h -12.47175 c -3.99894,-0.0035 -7.41519,2.889447 -8.0697,6.832522 l -5.51552,33.128934 c -1.82386,0.953842 -3.63176,1.999466 -5.40374,3.15286 L 146.22237,83.188436 c -3.73952,-1.404823 -7.946,0.103755 -9.94547,3.563924 l -8.24134,14.27964 c -0.21151,0 -0.38313,-0.12372 -0.59464,-0.12372 H 78.384068 V 74.883251 C 89.64256,70.904261 96.395258,59.390358 94.375828,47.621014 92.356409,35.847691 82.151535,27.247181 70.210596,27.247181 c -11.944943,0 -22.149817,8.60051 -24.169236,20.373833 -2.019418,11.769344 4.737271,23.283247 15.995751,27.262237 v 34.198509 c 0,4.51378 3.659711,8.17348 8.173485,8.17348 h 48.917144 c -0.75029,3.01317 0.28735,6.18599 2.67395,8.17349 l 25.92527,21.34763 c 0,0.59864 0,1.20925 -0.0479,1.81587 l -78.973076,1.21726 C 64.994406,139.44897 54.829449,132.82796 43.85032,133.62616 c -10.979116,0.79419 -20.082487,8.80803 -22.261548,19.59559 -2.183054,10.79154 3.092988,21.7108 12.902758,26.70748 z m 35.719063,84.44865 c -4.513774,0 -8.173485,-3.6597 -8.173485,-8.17348 0,-4.51377 3.659711,-8.17348 8.173485,-8.17348 4.513775,0 8.173472,3.65971 8.173472,8.17348 0,4.51378 -3.659697,8.17348 -8.173472,8.17348 z m 0,-220.683968 c 4.513775,0 8.173472,3.65971 8.173472,8.173484 0,4.513775 -3.659697,8.173484 -8.173472,8.173484 -4.513774,0 -8.173485,-3.659709 -8.173485,-8.173484 0,-4.513774 3.659711,-8.173484 8.173485,-8.173484 z M 217.33324,248.03092 h 12.04869 c 3.99096,0 7.39924,-2.88546 8.05774,-6.82454 l 5.52349,-33.1369 c 1.81589,-0.94587 3.62379,-1.99948 5.39577,-3.15286 l 31.49265,11.79327 c 3.73953,1.40481 7.94599,-0.10375 9.94546,-3.56392 l 3.46017,-5.98245 h 38.50475 c 0.60262,-0.0479 1.19728,-0.16762 1.77198,-0.35919 l 14.57498,19.42798 v 13.62513 h -32.69393 v 16.34696 h 18.85728 l -21.8904,8.75218 c -3.10497,1.24117 -5.14435,4.25036 -5.14035,7.59478 v 16.34695 h -89.90828 z m 88.81077,-132.96671 -3.4482,-5.98245 h 20.89267 v 32.69392 h -39.14331 l 19.81909,-16.34695 c 3.06904,-2.53825 3.85926,-6.91234 1.87975,-10.36452 z m 17.44447,43.05843 v 32.69392 h -20.89267 l 3.4482,-5.98244 c 1.97951,-3.45218 1.18929,-7.82627 -1.87975,-10.36451 l -19.81909,-16.34697 z m -54.81979,201.94241 30.29935,30.29935 v 4.78915 h -49.04088 v -89.90827 h 16.34696 v 49.04087 c 0,2.16709 0.86205,4.24638 2.39457,5.7789 z M 216.9581,468.71487 h 0.37514 v -0.42304 l 30.67449,-35.05657 c 1.30504,-1.49261 2.01943,-3.40828 2.01943,-5.38779 v -16.34696 h 16.34696 v 73.56131 h -63.75555 z m -94.3223,16.34695 59.60895,-59.60893 c 1.53252,-1.53252 2.39457,-3.61181 2.39457,-5.7789 V 305.24528 h 49.04088 v 119.52915 l -16.34696,18.68566 v -40.13306 h -16.34695 v 58.85065 l -20.05857,22.88414 z m 222.08878,0 h -62.0035 v -73.56131 h 16.34696 v 24.52044 c 0,2.16709 0.86204,4.24637 2.39458,5.77891 z M 305.60522,373.80593 282.72108,350.91778 v -45.6725 h 24.52044 v 32.69391 c 0,2.81762 1.4527,5.43568 3.8393,6.9323 3.04908,1.91166 5.80285,3.59585 8.68032,5.36783 z m 69.61426,-327.85712 17.4764,8.748174 c 42.91476,21.271809 70.00139,65.096506 69.84174,112.995986 0.0359,12.64335 -4.9887,24.77586 -13.95237,33.69165 -2.39059,2.39057 -3.06506,6.00639 -1.69217,9.09539 l 27.58549,62.07135 h -20.11442 c -4.51377,0 -8.17348,3.65971 -8.17348,8.17348 v 24.52044 h -1.40482 c -12.64335,0.0359 -24.77188,-4.9887 -33.68368,-13.95239 -3.20872,-3.09698 -8.30518,-3.05308 -11.45804,0.0999 -3.15286,3.15285 -3.19674,8.2493 -0.0998,11.45804 9.68605,9.71797 22.26554,16.02767 35.84677,17.98324 l -3.15285,3.15286 c -1.53253,1.53252 -2.39458,3.61182 -2.39458,5.7789 v 40.8674 l -40.09315,0.0479 c -18.88127,-8.73228 -37.11596,-18.81345 -54.55643,-30.15973 l -0.0399,-0.0399 h -0.0519 c -3.84728,-2.3387 -7.70654,-4.70933 -11.5139,-7.07197 v -55.3267 l 35.72704,-14.28364 c 3.10497,-1.24119 5.14036,-4.25037 5.14036,-7.5948 v -32.69391 c 0,-1.768 -0.5747,-3.48809 -1.6363,-4.90488 L 339.93543,188.09473 V 95.34888 Z M 225.50672,27.346959 h 65.38783 v 16.346954 c 0,4.513774 3.65971,8.173483 8.17349,8.173483 h 51.84252 l -25.79355,36.118169 c -0.99774,1.384858 -1.53252,3.045102 -1.52853,4.749242 h -30.33127 l -3.46017,-5.982447 c -1.99947,-3.460169 -6.20593,-4.968747 -9.94546,-3.563924 l -31.46072,11.793276 c -1.77198,-1.153394 -3.57988,-2.207 -5.39578,-3.15286 l -5.55541,-33.136927 c -0.6585,-3.939061 -4.06678,-6.824529 -8.05774,-6.824529 h -3.87521 z m -87.97267,89.908281 9.42265,-16.34696 29.02623,10.87934 c 2.6061,0.97381 5.52748,0.55874 7.75442,-1.1055 3.07704,-2.31873 6.41747,-4.26632 9.94946,-5.80283 2.55821,-1.09752 4.38208,-3.42426 4.83704,-6.170029 l 5.08448,-30.494894 h 18.84929 l 5.08448,30.502875 c 0.45498,2.745788 2.27884,5.072498 4.83704,6.170028 3.532,1.5405 6.86844,3.48809 9.94946,5.80285 2.22696,1.66422 5.14434,2.07928 7.74644,1.10549 l 29.03422,-10.88733 9.41466,16.34696 -23.90981,19.67542 c -2.14713,1.768 -3.24865,4.51377 -2.9174,7.27951 0.50286,3.81535 0.50286,7.67861 0,11.49396 -0.33125,2.76573 0.77027,5.5115 2.9174,7.28349 l 23.90981,19.65546 -9.41466,16.34697 -29.03422,-10.87935 c -2.6021,-0.9738 -5.51948,-0.55873 -7.74644,1.10549 -3.08102,2.31476 -6.41746,4.26235 -9.94946,5.80285 -2.5582,1.09751 -4.38206,3.42424 -4.83704,6.17001 l -5.08448,30.49491 h -18.85726 l -5.06853,-30.50289 c -0.45496,-2.74577 -2.27884,-5.0725 -4.83703,-6.17001 -3.532,-1.53653 -6.87244,-3.4841 -9.94546,-5.80285 -2.23094,-1.66423 -5.15234,-2.08328 -7.75843,-1.10549 l -29.03421,10.88733 -9.42265,-16.34697 23.90983,-19.67541 c 0.14367,-0.13968 0.28335,-0.29135 0.41505,-0.44698 0.15965,-0.15167 0.30731,-0.30731 0.45099,-0.47494 0.6146,-0.66249 1.10948,-1.42476 1.46867,-2.25488 l 0.0519,-0.0918 c 0.33923,-0.89797 0.51882,-1.8558 0.52282,-2.81761 0.0279,-0.11573 0.0519,-0.23547 0.0639,-0.35121 0,-0.0998 -0.0479,-0.1796 -0.0559,-0.27936 -0.008,-0.0998 0,-0.37515 0,-0.56273 -0.50287,-3.81536 -0.50287,-7.67861 0,-11.49395 0.32725,-2.76574 -0.77424,-5.51151 -2.92537,-7.2835 z m -99.111425,37.13187 c 0.973782,-1.95158 2.697887,-3.42424 4.773174,-4.08674 4.182533,-1.06558 8.472812,1.30504 9.797812,5.41573 1.324988,4.10669 -0.778233,8.53665 -4.793138,10.11308 -4.29826,1.38087 -8.90383,-0.98178 -10.284698,-5.28004 -0.650522,-2.03937 -0.470935,-4.25435 0.50685,-6.16203 z m 0,0"
     id="path6"
     style="stroke-width:1.02168" />
  <path
     d="m 200.98629,337.93919 h 16.34695 v 16.34696 h -16.34695 z m 0,0"
     id="path8"
     style="stroke-width:1.02168" />
  <path
     d="m 200.98629,370.63312 h 16.34695 v 16.34695 h -16.34695 z m 0,0"
     id="path10"
     style="stroke-width:1.02168" />
  <path
     d="m 250.02716,239.85744 h 16.34696 v 16.34696 h -16.34696 z m 0,0"
     id="path12"
     style="stroke-width:1.02168" />
  <path
     d="m 282.72108,239.85744 h 16.34696 v 16.34696 h -16.34696 z m 0,0"
     id="path14"
     style="stroke-width:1.02168" />
  <path
     d="m 356.28239,92.734807 h 16.34697 v 32.693923 h -16.34697 z m 0,0"
     id="path16"
     style="stroke-width:1.02168" />
  <path
     d="m 356.28239,141.77568 h 16.34697 v 16.34696 h -16.34697 z m 0,0"
     id="path18"
     style="stroke-width:1.02168" />
  <path
     d="m 356.28239,174.46961 h 16.34697 v 16.34695 h -16.34697 z m 0,0"
     id="path20"
     style="stroke-width:1.02168" />
</svg>
