<svg xmlns="http://www.w3.org/2000/svg" xmlns:xlink="http://www.w3.org/1999/xlink" version="1.1" xml:space="preserve" class="u-svg-content" viewBox="0 0 24 24" id="svg-bug">
<path d="m22.25 20h-20.5c-.965 0-1.75-.785-1.75-1.75v-12.5c0-.965.785-1.75 1.75-1.75h1.68c.414 0 .75.336.75.75s-.336.75-.75.75h-1.68c-.136 0-.25.114-.25.25v12.5c0 .136.114.25.25.25h20.5c.136 0 .25-.114.25-.25v-12.5c0-.136-.114-.25-.25-.25h-1.68c-.414 0-.75-.336-.75-.75s.336-.75.75-.75h1.68c.965 0 1.75.785 1.75 1.75v12.5c0 .965-.785 1.75-1.75 1.75z"></path>
<path d="m16.25 24h-8.5c-.414 0-.75-.336-.75-.75s.336-.75.75-.75h8.5c.414 0 .75.336.75.75s-.336.75-.75.75z"></path>
<path d="m12 24c-.414 0-.75-.336-.75-.75v-4c0-.414.336-.75.75-.75s.75.336.75.75v4c0 .414-.336.75-.75.75z"></path>
<path d="m14 4.5h-4c-.414 0-.75-.336-.75-.75 0-1.517 1.233-2.75 2.75-2.75s2.75 1.233 2.75 2.75c0 .414-.336.75-.75.75zm-3-1.5h2c-.229-.304-.591-.5-1-.5s-.771.196-1 .5z"></path>
<path d="m13.601 3.3c-.069 0-.139-.01-.208-.029-.398-.115-.628-.53-.513-.929.397-1.379 1.68-2.342 3.12-2.342.414 0 .75.336.75.75s-.336.75-.75.75c-.775 0-1.466.518-1.679 1.258-.095.328-.395.542-.72.542z"></path>
<path d="m10.399 3.3c-.326 0-.625-.214-.72-.542-.213-.74-.904-1.258-1.679-1.258-.414 0-.75-.336-.75-.75s.336-.75.75-.75c1.44 0 2.723.963 3.121 2.342.115.398-.115.813-.513.929-.07.019-.14.029-.209.029z"></path>
<path d="m14.75 7c-.336 0-.642-.228-.727-.568-.101-.401.144-.809.545-.909l1.666-.416.846-1.691c.186-.371.636-.521 1.006-.336.371.186.521.636.335 1.006l-1 2c-.098.196-.276.34-.489.393l-2 .5c-.061.014-.122.021-.182.021z"></path>
<path d="m17.75 12c-.275 0-.54-.151-.671-.415l-.886-1.771-1.771-.858c-.373-.181-.528-.629-.348-1.002s.629-.527 1.002-.348l2 .97c.149.072.27.191.344.34l1 2c.185.37.035.82-.335 1.006-.107.053-.222.078-.335.078z"></path>
<path d="m9.25 7c-.06 0-.121-.007-.182-.022l-2-.5c-.213-.053-.391-.197-.489-.393l-1-2c-.185-.37-.035-.82.335-1.006.372-.185.821-.035 1.006.336l.846 1.691 1.666.416c.402.101.646.508.545.909-.084.341-.391.569-.727.569z"></path>
<path d="m6.25 12c-.113 0-.227-.025-.335-.079-.371-.186-.521-.636-.335-1.006l1-2c.074-.148.195-.268.344-.34l2-.97c.372-.178.821-.025 1.001.348.181.373.025.821-.348 1.002l-1.77.858-.886 1.771c-.131.265-.397.416-.671.416z"></path>
<path d="m12 13c-1.93 0-3.5-1.57-3.5-3.5v-5.75c0-.414.336-.75.75-.75h5.5c.414 0 .75.336.75.75v5.75c0 1.93-1.57 3.5-3.5 3.5zm-2-8.5v5c0 1.103.897 2 2 2s2-.897 2-2v-5z"></path>
<path d="m12 13c-.414 0-.75-.336-.75-.75v-8.5c0-.414.336-.75.75-.75s.75.336.75.75v8.5c0 .414-.336.75-.75.75z"></path>
</svg>

