<?xml version="1.0" encoding="UTF-8" standalone="no"?>
<svg
   xmlns:dc="http://purl.org/dc/elements/1.1/"
   xmlns:cc="http://creativecommons.org/ns#"
   xmlns:rdf="http://www.w3.org/1999/02/22-rdf-syntax-ns#"
   xmlns:svg="http://www.w3.org/2000/svg"
   xmlns="http://www.w3.org/2000/svg"
   class="svg-inline"
   width="512"
   height="512"
   viewBox="0 0 135.46667 135.46667"
   version="1.1"
   id="svg-care">
  <defs
     id="defs857" />
  <metadata
     id="metadata860">
    <rdf:RDF>
      <cc:Work
         rdf:about="">
        <dc:format>image/svg+xml</dc:format>
        <dc:type
           rdf:resource="http://purl.org/dc/dcmitype/StillImage" />
        <dc:title></dc:title>
      </cc:Work>
    </rdf:RDF>
  </metadata>
  <g
     id="layer1"
     transform="translate(-28.842685,-69.054298)">
    <path
       style="fill:#000000;stroke-width:0.264583"
       d="m 97.584048,201.66528 c -2.01033,-0.54061 -3.84008,-1.60145 -5.07733,-2.94371 -1.06058,-1.1506 -1.06058,-1.1506 -2.17266,-0.26706 -2.57068,2.04238 -4.75359,2.83573 -7.80257,2.83573 -6.50462,0 -11.530346,-4.52172 -12.171813,-10.95114 -0.187684,-1.88116 -0.187684,-1.88116 -2.192382,-2.04421 -5.778084,-0.46996 -10.787657,-5.80572 -10.821124,-11.52572 -0.0065,-1.10544 -0.0065,-1.10544 -1.527823,-1.28037 -3.549249,-0.40812 -5.580147,-1.35391 -7.875602,-3.66766 -2.207311,-2.22491 -3.567627,-5.34892 -3.567627,-8.19318 0,-0.85915 0,-0.85915 -2.163191,-1.17443 -2.723682,-0.39698 -4.943273,-1.42504 -6.854503,-3.17482 -2.357975,-2.15878 -3.946885,-5.75004 -3.946885,-8.92076 0,-2.47889 1.1642,-5.75594 2.71603,-7.64523 0.629236,-0.76607 0.629236,-0.76607 -0.85821,-3.70417 -10.5359,-20.81121 -1.57281,-46.321393 19.593686,-55.766303 13.963335,-6.230718 30.356804,-4.217392 42.086624,5.168771 1.55956,1.247954 1.55956,1.247954 2.81123,0.204982 1.89578,-1.579679 5.627132,-3.921954 8.076012,-5.069537 15.70974,-7.361836 34.19606,-4.136561 46.35691,8.087806 10.67765,10.733411 14.51823,25.787351 10.31038,40.413581 -1.83187,6.36748 -5.1281,11.91603 -10.32448,17.37924 -2.39535,2.51836 -2.39535,2.51836 -1.76826,4.0669 2.78011,6.86525 -1.66076,14.42234 -9.15703,15.58265 -1.81151,0.2804 -1.81151,0.2804 -2.09191,2.09192 -0.87151,5.63046 -5.63513,9.97203 -10.97963,10.00687 -0.99219,0.006 -0.99219,0.006 -0.99219,1.28137 0,4.35072 -3.48103,8.76673 -7.99024,10.13636 -1.47804,0.44894 -2.26713,0.53123 -4.00295,0.41743 -1.18911,-0.078 -2.4131,-0.22095 -2.71998,-0.31776 -0.48882,-0.15421 -0.61436,-10e-4 -1.01315,1.23413 -1.90533,5.9026 -8.02265,9.31327 -13.879332,7.73832 z m 4.994642,-6.21624 c 1.50611,-0.68316 2.04666,-1.17802 2.71304,-2.48371 0.65458,-1.28256 0.68958,-3.4286 0.077,-4.71955 -0.23846,-0.50249 -0.92355,-1.3074 -1.52245,-1.78869 -1.08889,-0.87506 -1.08889,-0.87506 -1.49401,-0.23085 -0.22281,0.35431 -1.87158,2.14043 -3.663922,3.96914 -3.25881,3.32494 -3.25881,3.32494 -2.07542,4.17478 2.40653,1.72824 3.927722,2.00334 5.965772,1.07888 z m -17.590032,-0.74767 c 0.67555,-0.31395 3.17726,-2.63245 6.91687,-6.41034 6.22509,-6.28879 6.4475,-6.60298 6.4373,-9.0935 -0.005,-1.19614 -0.79794,-3.1328 -1.66278,-4.06065 -1.74568,-1.87284 -5.12794,-2.3588 -7.32577,-1.05255 -1.83,1.08764 -11.759265,11.20898 -12.413682,12.65382 -1.373273,3.03194 -0.03257,6.56881 3.020977,7.96956 1.383755,0.63477 3.653685,0.6319 5.027085,-0.006 z m 32.879362,-8.10814 c 2.73674,-1.14348 4.00663,-4.37833 2.82704,-7.20147 -0.27148,-0.64976 -3.36608,-3.94488 -9.19427,-9.79004 -8.78505,-8.81064 -8.78505,-8.81064 -8.78505,-10.10329 0,-1.00691 0.14299,-1.44485 0.64688,-1.98122 0.78761,-0.83837 1.99476,-1.19433 3.0506,-0.89955 0.5303,0.14806 3.59439,3.02082 9.39271,8.80622 8.82655,8.8069 9.86006,9.65483 11.78064,9.66532 1.56411,0.009 2.8933,-0.55939 4.00118,-1.7096 1.39962,-1.4531 1.86673,-3.13678 1.40111,-5.05021 -0.29822,-1.22549 -0.8392,-1.82796 -9.12854,-10.16624 -5.02387,-5.05352 -8.93924,-9.20355 -9.10863,-9.65453 -0.58254,-1.55097 0.41155,-3.46353 2.05906,-3.9615 1.5696,-0.47442 1.99655,-0.13041 11.30499,9.10869 8.45776,8.39476 9.07375,8.94786 10.29853,9.247 3.46657,0.84669 6.759,-1.78862 6.76562,-5.41531 0.004,-2.02314 -0.75237,-2.86871 -17.78573,-19.89145 -16.47634,-16.46606 -16.47634,-16.46606 -18.593,-16.99993 -1.16417,-0.29363 -3.01981,-0.85209 -4.12365,-1.24101 -2.00698,-0.70715 -2.00698,-0.70715 -4.697602,1.29947 -4.67315,3.48515 -9.8687,5.78699 -15.13389,6.70493 -3.67125,0.64006 -9.096061,0.40634 -12.245774,-0.52759 -3.048979,-0.90405 -4.077369,-1.45108 -5.375489,-2.85938 -1.522979,-1.65223 -2.051018,-3.19254 -1.885844,-5.50105 0.227054,-3.17341 0.210626,-3.15636 13.890121,-14.41563 6.718446,-5.529787 12.292656,-10.135407 12.387136,-10.234708 0.28155,-0.295928 -3.26743,-2.768203 -5.96605,-4.156039 -5.454182,-2.80495 -9.727023,-3.82631 -16.007294,-3.82631 -6.273644,0 -10.534549,1.017273 -16.007291,3.821673 -6.239759,3.197442 -11.894416,8.93074 -15.066525,15.276054 -1.094663,2.1897 -2.543557,6.54754 -3.103652,9.33484 -0.675356,3.3609 -0.609894,9.63705 0.136946,13.12965 0.650974,3.04429 1.579111,5.78986 2.751807,8.14026 0.435632,0.87312 0.837846,1.63748 0.89381,1.69856 0.05596,0.0611 1.678961,-1.42887 3.606662,-3.311 3.879178,-3.78749 5.26384,-4.68333 8.194477,-5.30162 6.956735,-1.46771 13.991175,3.70307 14.434453,10.61026 0.1236,1.92596 0.1236,1.92596 1.782241,2.09589 2.007158,0.20564 4.156519,0.91634 5.680188,1.87819 3.259545,2.05766 5.548133,6.06303 5.557285,9.72607 0.0031,1.2559 0.0038,1.25677 0.916159,1.25677 2.433104,0 5.356244,1.05275 7.486664,2.69628 2.5496,1.96689 4.5649,5.91146 4.5649,8.93489 0,1.25667 0,1.25667 1.79646,1.40728 5.65301,0.47392 10.283562,4.83832 11.056482,10.42096 0.15983,1.15446 0.33088,1.40808 1.75487,2.60205 0.86778,0.72761 2.66876,2.31496 4.00217,3.52746 1.33342,1.2125 2.90064,2.43028 3.48273,2.70617 1.28991,0.61139 2.99126,0.65239 4.30436,0.10374 z m -46.033885,-4.75959 c 1.332052,-0.55058 12.366893,-11.51014 13.043863,-12.95486 1.17799,-2.51396 0.18699,-5.85627 -2.21171,-7.45936 -1.67565,-1.11986 -3.268073,-1.34938 -5.191401,-0.74825 -1.374148,0.42949 -1.90011,0.88003 -7.223334,6.1875 -6.045956,6.02806 -6.810514,7.05551 -6.81915,9.16386 -0.01011,2.46923 1.404032,4.74009 3.564588,5.72408 1.300813,0.59244 3.517889,0.63233 4.837144,0.087 z M 59.324074,168.68157 c 0.624105,-0.30583 3.349334,-2.8143 6.642129,-6.11383 6.282748,-6.29559 6.643232,-6.8406 6.38779,-9.65768 -0.248404,-2.73943 -2.038376,-4.72911 -4.813072,-5.35006 -1.639906,-0.367 -2.967225,-0.0658 -4.664688,1.05857 -1.54137,1.02096 -11.143881,10.74297 -11.72797,11.87391 -1.105983,2.14147 -0.759953,4.94098 0.827977,6.69863 2.0248,2.24121 4.705973,2.78507 7.347834,1.49046 z m -13.88155,-12.53 c 1.314024,-0.39022 1.877656,-0.86933 7.059691,-6.00104 6.253259,-6.19252 6.954151,-7.16843 6.954151,-9.68287 0,-4.48538 -4.729005,-7.35909 -8.731249,-5.30578 -1.498146,0.7686 -12.052234,11.54253 -12.682924,12.94711 -1.502965,3.34717 0.590686,7.30441 4.348549,8.21926 1.21894,0.29675 1.51537,0.27959 3.051782,-0.17668 z M 148.37609,144.5468 c 4.86644,-5.2976 7.6451,-10.6135 9.13285,-17.47219 0.71535,-3.29783 0.64348,-10.29879 -0.14118,-13.75275 -3.18211,-14.007247 -13.74201,-24.29564 -27.7486,-27.035161 -3.4154,-0.668011 -9.68301,-0.601545 -13.20126,0.139995 -6.21668,1.310289 -12.39477,4.466508 -16.612582,8.48693 -0.7276,0.693553 -7.03791,5.940716 -14.02291,11.660346 -6.985001,5.71965 -13.086954,10.76074 -13.559897,11.20242 -1.25331,1.17048 -1.155324,1.92125 0.336897,2.58134 3.02228,1.33689 7.973134,1.65961 12.1704,0.79331 4.28512,-0.88443 8.01185,-2.65947 12.22839,-5.82437 4.000362,-3.00264 5.286242,-3.23848 9.651082,-1.7701 4.58543,1.54259 6.25073,1.83215 10.52625,1.83026 3.08661,-0.001 4.23868,-0.11163 5.89433,-0.56416 2.75628,-0.75335 5.65085,-2.23893 7.95312,-4.08178 2.13831,-1.7116 3.09027,-2.01661 4.48075,-1.43563 1.71985,0.7186 2.27832,2.79984 1.18482,4.41545 -0.8992,1.32854 -3.98354,3.56623 -6.94531,5.03882 -2.56576,1.2757 -7.0057,2.62654 -8.63288,2.62654 -0.41791,0 -0.75983,0.0734 -0.75983,0.16312 0,0.29522 25.21494,25.78372 25.43196,25.70786 0.1166,-0.0408 1.30172,-1.26037 2.6336,-2.71025 z"
       id="path897" />
  </g>
</svg>
