<?xml version="1.0" encoding="UTF-8" standalone="no"?>
<svg
   xmlns:dc="http://purl.org/dc/elements/1.1/"
   xmlns:cc="http://creativecommons.org/ns#"
   xmlns:rdf="http://www.w3.org/1999/02/22-rdf-syntax-ns#"
   xmlns:svg="http://www.w3.org/2000/svg"
   xmlns="http://www.w3.org/2000/svg"
   version="1.1"
   id="svg-civic"
   class="svg-inline"
   width="512"
   height="512"
   viewBox="0 0 512 512">
  <metadata
     id="metadata8">
    <rdf:RDF>
      <cc:Work
         rdf:about="">
        <dc:format>image/svg+xml</dc:format>
        <dc:type
           rdf:resource="http://purl.org/dc/dcmitype/StillImage" />
        <dc:title></dc:title>
      </cc:Work>
    </rdf:RDF>
  </metadata>
  <defs
     id="defs6" />
  <g
     id="g10"
     transform="matrix(1.4904498,0,0,1.5290885,-88.128458,-88.388281)">
    <path
       style="fill:#000000"
       d="m 118.04482,390.64455 c -1.83333,-1.83333 -2,-3.33333 -2,-18 0,-14.66667 0.16667,-16.16667 2,-18 1.40741,-1.40741 3.33333,-2 6.5,-2 h 4.5 l -0.0269,-13.75 -0.0269,-13.75 -4.00901,-2.47372 c -5.81594,-3.58866 -9.42314,-11.27545 -8.59048,-18.30596 0.76433,-6.4536 4.66317,-12.26397 10.15328,-15.13126 3.27851,-1.71225 6.20032,-2.14867 16.19872,-2.41953 l 12.19873,-0.33046 -0.22963,-9.16954 -0.22962,-9.16953 -17.90038,-17.75 -17.90038,-17.75 h -6.1444 c -5.27434,0 -6.47969,0.3569 -8.51222,2.52043 -2.13684,2.27456 -2.25139,2.84238 -1.17431,5.82099 0.65643,1.81532 1.1935,5.99303 1.1935,9.2838 0,11.31039 -8.590773,20.35589 -20.124923,21.1902 -7.82006,0.56565 -13.55473,-1.65935 -18.72027,-7.2633 -8.30887,-9.01406 -8.0643,-21.93416 0.58291,-30.79383 6.19091,-6.34301 14.68832,-8.11742 25.30229,-5.28358 2.06808,0.55216 3.35982,-0.0712 6.95249,-3.35526 2.426883,-2.21838 5.246373,-4.16528 6.265543,-4.32644 1.3824,-0.21859 -1.97073,-4.15174 -13.202503,-15.48624 l -15.05554,-15.19324 v -43.49435 -43.49436 l -4.75,-2.62144 c -5.61663,-3.099732 -9.84207,-8.274742 -11.36041,-13.913411 -4.35406,-16.169755 11.53063,-32.054443 27.70038,-27.70038 14.104113,3.79784 21.114933,21.299987 13.403153,33.460209 -1.794353,2.82939 -5.020383,5.99303 -8.000003,7.84526 l -4.99312,3.103892 v 41.10546 41.10546 l 37.754873,37.74506 37.75487,37.74507 h 9.63384 9.63384 l 0.67543,-3.60038 c 0.51505,-2.74544 0.24466,-4.08081 -1.13871,-5.6236 -0.99777,-1.11278 -15.74733,-15.93999 -32.77678,-32.94936 -17.02945,-17.00938 -31.76399,-32.14125 -32.74341,-33.6264 -1.4534,-2.20385 -1.78198,-4.86973 -1.78736,-14.50129 l -0.007,-11.80102 -3.25,-1.43239 c -9.65383,-4.25477 -15.045743,-14.81422 -12.681723,-24.83575 2.730503,-11.57514 10.735903,-17.87696 22.712173,-17.87895 5.18704,-8.7e-4 7.09751,0.5041 10.97356,2.90048 13.64812,8.43798 14.82741,28.11977 2.23159,37.24413 -2.3037,1.66879 -5.04288,3.30532 -6.08707,3.63674 -1.7015,0.54003 -1.89853,1.66284 -1.89853,10.81934 v 10.21677 l 5.51046,5.44201 5.51045,5.442 13.98955,-13.96277 13.98954,-13.96277 V 143.55982 124.9483 l -4.06269,-1.83202 c -10.43752,-4.70666 -15.78431,-18.74133 -11.03737,-28.971732 2.33461,-5.03146 7.42599,-10.191516 11.90061,-12.06113 5.2676,-2.200944 14.9822,-1.862004 19.19945,0.669863 8.55323,5.135009 12,10.801877 12,19.729309 0,3.25474 -0.65308,7.48074 -1.45128,9.39112 -1.79277,4.29069 -7.45913,10.07688 -11.51232,11.75576 l -3.0364,1.25772 v 21.00147 21.00146 l -15.7016,15.89563 -15.7016,15.89563 21.64019,21.73159 21.64018,21.73158 1.48434,-2.5 c 2.29444,-3.8644 7.56228,-8.52508 14.00371,-12.38965 l 5.86522,-3.51888 -8.62825,-8.79573 -8.62825,-8.79574 0.26303,-23.5 0.26303,-23.5 3.38837,-0.32368 c 1.86361,-0.17802 4.45111,-0.057 5.75,0.26905 l 2.36163,0.59273 v 21.16268 21.16268 l 8.14076,8.34029 8.14075,8.34029 -0.73332,-43.86439 -0.73332,-43.86439 10.74813,-0.65763 c 18.56369,-1.13583 31.04057,-0.84023 32.37447,0.76702 0.81229,0.97875 1.11935,5.97724 0.98105,15.97015 l -0.20131,14.54549 -5.1086,1.52138 c -2.80974,0.83676 -9.38361,2.81564 -14.60861,4.39751 l -9.5,2.87612 -0.2667,25.54163 -0.2667,25.54163 4.1587,0.70261 c 2.28728,0.38643 7.01979,2.19391 10.5167,4.01662 l 6.358,3.31402 v -22.13978 -22.13979 l 17,-17.1009 17,-17.1009 -0.0136,-13.93522 c -0.008,-7.66437 -0.25807,-14.84476 -0.5568,-15.95641 -0.29873,-1.11165 -2.65508,-3.13665 -5.23635,-4.5 -3.42674,-1.8099 -5.57021,-3.95105 -7.9432,-7.93457 -12.96595,-21.765904 15.1446,-45.234139 33.8932,-28.295909 5.47651,4.947704 7.8568,9.973697 7.8568,16.589707 0,9.151702 -4.35321,16.570722 -11.86016,20.212812 l -4.01752,1.94915 -0.31116,18.24141 -0.31116,18.24141 -16.78162,16.80097 -16.78162,16.80097 0.36823,27.45762 c 0.36649,27.32733 0.38206,27.49691 3.28162,35.73873 l 2.91339,8.28111 7.5,-0.28111 7.5,-0.28111 0.5,-12.72514 0.5,-12.72514 6.25,-6.30176 c 3.4375,-3.46598 6.25,-6.70364 6.25,-7.1948 0,-0.49117 -2.925,-3.92281 -6.5,-7.62587 l -6.5,-6.73283 v -12.64713 -12.64714 l 5.75,0.29991 5.75,0.2999 0.28741,10 0.28741,10 4.675,4.75 c 2.57125,2.6125 5.14754,4.75 5.72509,4.75 0.57755,0 7.78743,-6.74859 16.02196,-14.99686 l 14.97186,-14.99686 -9.98437,-10.01973 -9.98436,-10.01972 v -15.23341 -15.23342 h 5.5 5.5 l 0.27839,12.55032 0.27838,12.55031 8.4439,8.40004 8.4439,8.40003 2.52771,-2.37466 2.52772,-2.37467 V 135.49056 102.6852 l -3.75,-1.9327 c -8.29098,-4.273042 -12.76058,-11.816392 -12.64049,-21.333363 0.0945,-7.491501 3.95618,-13.993141 10.83851,-18.248153 4.16532,-2.575254 5.88749,-3.026436 11.55193,-3.026436 5.66444,0 7.38661,0.451182 11.55198,3.026436 7.07655,4.375095 10.78415,10.779258 10.87159,18.778571 0.10271,9.396053 -4.46996,16.723083 -13.17357,21.108725 l -3.25,1.63763 v 35.19025 35.19024 l -33.5,33.55343 -33.5,33.55343 v 7.73065 c 0,4.25185 0.34332,7.73064 0.76293,7.73064 0.41962,0 7.2763,-6.525 15.23707,-14.5 l 14.47413,-14.5 h 12.77103 12.77103 l 1.60963,-4.02284 c 5.9021,-14.75081 28.72646,-17.13676 38.24422,-3.99787 6.53464,9.02081 6.28784,19.97144 -0.63232,28.05609 -3.94121,4.60442 -7.1652,6.49169 -13.52405,7.91674 -8.89121,1.99256 -19.45442,-3.59287 -24.49517,-12.95212 l -1.88504,-3.5 -9.71434,-0.28679 -9.71435,-0.28678 -17.9772,17.89965 -17.97721,17.89964 -0.61211,6.55495 -0.61211,6.55495 12.88693,0.33219 c 10.21906,0.26342 13.68732,0.72948 16.75315,2.25128 7.86361,3.9033 12.26041,14.20832 9.70348,22.7426 -1.29759,4.33098 -7.09504,11.39419 -10.14749,12.363 -1.77511,0.5634 -1.92221,1.67628 -1.92221,14.5427 v 13.93261 h 4.5 c 3.16667,0 5.09259,0.59259 6.5,2 1.83333,1.83333 2,3.33333 2,18 0,14.66667 -0.16667,16.16667 -2,18 -1.97542,1.97542 -3.33333,2 -110.5,2 -107.16667,0 -108.52458,-0.0246 -110.5,-2 z m 45.66231,-18.25 4.32343,-6.75 h -19.49287 -19.49287 v 7.02605 7.02604 l 15.16944,-0.27604 15.16944,-0.27605 z m 117.72256,6 c -0.40324,-0.6875 -2.47156,-3.8375 -4.59628,-7 l -3.86311,-5.75 h -44.42548 -44.42548 l -3.86311,5.75 c -2.12472,3.1625 -4.19304,6.3125 -4.59628,7 -0.58276,0.99357 10.26609,1.25 52.88487,1.25 42.61878,0 53.46763,-0.25643 52.88487,-1.25 z m 46.61513,-5.75 v -7 h -19.62244 c -15.55387,0 -19.41929,0.25918 -18.64261,1.25 0.5389,0.6875 2.61342,3.8375 4.61002,7 l 3.63019,5.75 h 15.01242 15.01242 z m -146,-33 v -13 h -20 -20 v 13 13 h 20 20 z m 27,-11.30887 c 0,-26.13601 0.16252,-27.01843 5.19968,-28.23217 2.09348,-0.50445 3.27233,-0.0779 5.25,1.89981 l 2.55032,2.55032 v 24.04546 24.04545 h 6.5 6.5 V 328.5991 304.55364 l 2.55032,-2.55032 c 1.97767,-1.97766 3.15652,-2.40426 5.25,-1.89981 5.03716,1.21374 5.19968,2.09616 5.19968,28.23217 v 24.30887 h 6.5 6.5 V 324.6597 296.67485 l -16.2492,-10.86319 -16.2492,-10.86319 -16.2508,10.86265 -16.2508,10.86266 v 27.98539 27.98538 h 6.5 6.5 z m 106,11.30887 v -13 h -20 -20 v 13 13 h 20 20 z m -133,-33.5 v -6.5 h -24.04545 -24.04546 l -2.45454,2.45455 c -2.83781,2.8378 -3.09165,5.19085 -0.89785,8.32294 1.53791,2.19567 1.85793,2.22251 26.5,2.22251 h 24.9433 z m 144.4433,4.27749 c 2.1938,-3.13209 1.93996,-5.48514 -0.89785,-8.32294 l -2.45454,-2.45455 h -24.04546 -24.04545 v 6.5 6.5 h 24.9433 c 24.64207,0 24.96209,-0.0268 26.5,-2.22251 z m -119.9433,-36.77749 c 12.1825,-8.13724 20.41179,-13 22,-13 1.58821,0 9.8175,4.86276 22,13 l 19.46269,13 h 9.01866 9.01865 v -6.5 -6.5 H 277.1556 c -13.75206,0 -14.79661,-0.66555 -16.15595,-10.29411 -1.60684,-11.38157 -7.86494,-20.5997 -17.19452,-25.32735 -21.01819,-10.65072 -44.90812,2.12311 -47.81553,25.56674 -1.15774,9.33533 -2.30647,10.05472 -16.05556,10.05472 h -10.88922 v 6.5 6.5 h 9.01865 9.01866 z M 86.015647,259.15964 c 3.59628,-1.85971 7.03035,-6.58619 7.02544,-9.66946 -0.006,-3.64006 -3.6924,-8.82072 -7.37049,-10.35753 -6.76642,-2.82718 -14.61219,2.43742 -14.62204,9.81156 -0.006,4.22417 2.74492,8.6857 6.31098,10.23668 4.09824,1.78245 5.17324,1.77981 8.65611,-0.0213 z M 386.91752,240.54852 c 7.54613,-7.03029 3.11835,-18.90397 -7.04943,-18.90397 -3.24215,0 -4.68338,0.66011 -7.42327,3.4 -4.91001,4.91001 -4.51423,11.38776 0.96704,15.82776 3.11827,2.5259 10.64045,2.34556 13.50566,-0.32379 z m -142.71833,-85.55864 8.84563,-2.65467 v -5.48993 -5.48994 l -6.75,0.6375 c -3.7125,0.35062 -8.2125,0.64069 -10,0.6446 l -3.25,0.007 v 7.5 c 0,5.00195 0.38449,7.5 1.15437,7.5 0.6349,0 5.1349,-1.1946 10,-2.65467 z m -115.92015,-10.2633 c 2.86345,-2.55849 3.26578,-3.53414 3.26578,-7.91944 0,-3.90875 -0.52652,-5.56192 -2.40993,-7.56672 -5.2394,-5.57708 -14.79124,-3.94865 -17.70205,3.0179 -4.55914,10.91154 8.10131,20.28182 16.8462,12.46826 z m 51.47564,-34.53112 c 5.70388,-6.63115 3.51302,-14.554252 -4.8573,-17.566082 -4.68834,-1.68697 -9.26891,0.0108 -11.96709,4.43548 -2.99795,4.916292 -2.47012,9.195042 1.64154,13.306702 3.26994,3.26994 3.86884,3.48848 8.217,2.99838 3.42398,-0.38594 5.30434,-1.24285 6.96585,-3.17448 z m 123.04921,-4.80091 c 5.15064,-5.498382 4.83107,-12.769472 -0.73544,-16.733172 -5.82793,-4.149859 -13.82265,-1.826948 -16.60144,4.82364 -1.71321,4.10029 -0.78297,8.082142 2.77226,11.866512 3.06263,3.26002 11.52766,3.28502 14.56462,0.043 z M 87.077557,90.127618 c 3.16015,-1.634175 5.96726,-6.095193 5.96726,-9.48307 0,-6.233958 -6.52698,-11.663 -12.79818,-10.645324 -9.83949,1.596729 -12.3191,14.553641 -3.78151,19.759854 3.73343,2.27664 6.72188,2.38042 10.61243,0.36854 z m 280.999993,0 c 6.18012,-3.19586 7.78621,-11.433814 3.21727,-16.502023 -5.02052,-5.569141 -13.46313,-4.960132 -17.2458,1.244027 -2.39066,3.921035 -2.52479,6.867529 -0.49163,10.799235 2.78703,5.389521 9.0194,7.303321 14.52016,4.458761 z M 194.04482,136.59465 v -11.04991 l 5.75,0.29991 5.75,0.2999 0.28383,10.75 0.28383,10.75 h -6.03383 -6.03383 z m 130.1013,-17.32804 c -0.67926,-0.81845 -1.08513,-3.39767 -0.91241,-5.79816 l 0.31111,-4.3239 5.80144,-0.30144 5.80144,-0.30144 -0.30144,5.80144 -0.30144,5.80144 -4.58759,0.29816 c -3.11883,0.2027 -4.97931,-0.17384 -5.81111,-1.1761 z M 218.54482,100.9857 c -8.29445,-4.365012 -12.83125,-11.782222 -12.85746,-21.020663 -0.0226,-7.968906 3.66199,-14.377577 10.80548,-18.794053 4.16537,-2.575254 5.88754,-3.026436 11.55198,-3.026436 5.66444,0 7.38661,0.451182 11.55198,3.026436 7.07655,4.375095 10.78415,10.779258 10.87159,18.778571 0.10249,9.376243 -4.47223,16.725343 -13.12391,21.083045 -4.16433,2.09749 -14.77516,2.07103 -18.79966,-0.0469 z m 14.53273,-10.858082 c 6.18012,-3.19586 7.78621,-11.433814 3.21727,-16.502023 -5.02052,-5.569141 -13.46313,-4.960132 -17.2458,1.244027 -2.39066,3.921035 -2.52479,6.867529 -0.49163,10.799235 2.78703,5.389521 9.0194,7.303321 14.52016,4.458761 z"
       id="path837" />
  </g>
</svg>
