<?xml version="1.0" encoding="UTF-8" standalone="no"?>
<svg
   xmlns:dc="http://purl.org/dc/elements/1.1/"
   xmlns:cc="http://creativecommons.org/ns#"
   xmlns:rdf="http://www.w3.org/1999/02/22-rdf-syntax-ns#"
   xmlns:svg="http://www.w3.org/2000/svg"
   xmlns="http://www.w3.org/2000/svg"
   xmlns:sodipodi="http://sodipodi.sourceforge.net/DTD/sodipodi-0.dtd"
   xmlns:inkscape="http://www.inkscape.org/namespaces/inkscape"
   version="1.1"
   id="svg-ecob"
   width="260.0929"
   height="364.0957"
   viewBox="0 0 260.09289 364.0957"
   sodipodi:docname="ecob.svg"
   inkscape:version="1.0.1 (1.0.1+r74)">
  <metadata
     id="metadata8">
    <rdf:RDF>
      <cc:Work
         rdf:about="">
        <dc:format>image/svg+xml</dc:format>
        <dc:type
           rdf:resource="http://purl.org/dc/dcmitype/StillImage" />
        <dc:title />
      </cc:Work>
    </rdf:RDF>
  </metadata>
  <defs
     id="defs6" />
  <sodipodi:namedview
     pagecolor="#ffffff"
     bordercolor="#666666"
     borderopacity="1"
     objecttolerance="10"
     gridtolerance="10"
     guidetolerance="10"
     inkscape:pageopacity="0"
     inkscape:pageshadow="2"
     inkscape:window-width="1848"
     inkscape:window-height="1016"
     id="namedview4"
     showgrid="false"
     fit-margin-top="0"
     fit-margin-left="0"
     fit-margin-right="0"
     fit-margin-bottom="0"
     inkscape:lockguides="false"
     inkscape:zoom="2.3944444"
     inkscape:cx="130.00421"
     inkscape:cy="224.00278"
     inkscape:window-x="72"
     inkscape:window-y="27"
     inkscape:window-maximized="1"
     inkscape:current-layer="g10"
     inkscape:document-rotation="0" />
  <g
     inkscape:groupmode="layer"
     inkscape:label="Image"
     id="g10"
     transform="translate(-265.00574,-287.32438)">
    <path
       id="path1833"
       style="fill:#81cd2b;stroke:none"
       d="m 502.39574,287.32438 c -7.06247,19.87852 -22.08587,34.69056 -39.18499,45.90006 -55.1565,27.51881 -118.08758,41.65886 -159.16098,89.20805 -29.98944,34.07276 -37.22666,96.36441 -30.21407,140.82039 1.97226,10.58234 0.62024,28.79636 15.74116,19.13169 63.97565,-18.7792 127.85102,-52.14381 165.64551,-108.98989 11.67503,-18.207 22.44978,-39.24398 20.21835,-61.52674 4.05784,10.36581 1.66459,27.10814 -0.6127,39.24801 -11.41061,48.05557 -51.34976,81.99563 -91.41139,107.26323 -25.87335,17.35078 -55.17188,28.18914 -82.54383,42.71116 -18.55893,9.99032 -37.6832,27.31881 -35.72893,50.32975 9.44015,-17.43003 27.84327,-28.76509 45.87523,-36.82254 57.52324,-27.11185 122.97537,-43.3689 168.69273,-90.29096 40.11344,-40.51182 50.05603,-101.40767 43.55298,-156.09712 -4.66758,-26.37944 -6.28028,-57.48781 -20.86907,-80.88509 z"
       sodipodi:nodetypes="ccccccccccccccc" />
    <path
       id="path1835"
       style="fill:#800080;stroke-width:1.18125"
       d="m 505.01714,291.68665 c -24.06893,42.11881 -70.50734,62.90472 -113.6396,80.04199 -34.1233,14.5286 -65.08912,36.51265 -87.55298,68.05765 -26.96595,36.2238 -37.43121,74.76872 -30.83425,117.95787 3.41593,10.69216 -0.74505,35.66234 16.51447,24.48676 63.02317,-19.58082 126.81037,-51.43519 164.36562,-107.87376 12.64358,-18.15197 21.83727,-39.51096 22.1807,-61.75962 3.74075,12.13612 0.89111,27.45141 -1.60985,40.39352 -10.02815,41.379 -42.90692,72.40687 -76.5334,96.11441 -29.95988,21.23805 -63.87536,35.61525 -96.46192,52.11937 -17.19392,9.79646 -36.1096,25.216 -35.8285,46.83037 12.24182,-15.21575 28.90967,-25.9167 46.4497,-34.25784 54.21417,-25.33042 114.79115,-41.57799 160.07821,-82.65708 39.80379,-35.32856 54.78645,-90.82877 52.17668,-142.55825 -1.89042,-27.09663 -5.17155,-54.36384 -12.24508,-80.635 -1.98801,-5.4426 -3.57569,-11.79704 -7.0598,-16.26039 z"
       sodipodi:nodetypes="cccccccccccccccc" />
    <path
       style="fill:#00a28c;stroke-width:0.417633;fill-opacity:1"
       d="M 237.1696,0.74590634 C 236.43092,1.725978 236.45653,3.3848829 235.62468,4.4458774 228.99852,19.781192 217.22417,32.293913 203.84908,42.034784 194.01997,48.905067 182.63572,53.081777 171.7795,58.022961 135.5822,73.754869 97.607028,87.005546 65.590574,110.68898 c -12.870389,9.73127 -24.882503,20.94797 -34.015709,34.32643 -14.597541,22.02685 -21.084674,48.34493 -23.951929,74.32407 -0.077333,0.39328 -0.2353523,2.72876 0.3850058,1.56368 2.4785582,-11.86659 5.7151722,-23.63063 10.9180142,-34.62932 17.918807,-39.41433 49.435837,-72.32187 87.788414,-92.339872 20.22461,-10.883874 42.2497,-17.876703 62.64115,-28.431172 26.26704,-13.22899 51.48477,-30.928393 67.53537,-56.0692284 0.99916,-1.634922 2.08968,-3.2525934 2.99006,-4.9216194 -0.86259,-1.0673203 -1.24831,-3.3138002 -2.71135,-3.76604186 z"
       id="path9"
       transform="translate(265.00574,287.32438)" />
  </g>
</svg>
