<svg id="outline" height="512" viewBox="0 0 512 512" width="512" xmlns="http://www.w3.org/2000/svg"><path d="m96 352h16v32h-16z"/><path d="m56 352h16v32h-16z"/><path d="m96 416h16v32h-16z"/><path d="m56 416h16v32h-16z"/><path d="m440 352h16v32h-16z"/><path d="m400 352h16v32h-16z"/><path d="m440 416h16v32h-16z"/><path d="m400 416h16v32h-16z"/><path d="m480 104a24.039 24.039 0 0 0 -22.624 16h-25.376a8 8 0 0 0 -5.657 2.343l-34.343 34.343v-25.373l29.657-29.656a8 8 0 0 0 2.343-5.657v-33.376a24 24 0 1 0 -16 0v30.063l-29.657 29.656a8 8 0 0 0 -2.343 5.657v44.686l-13.657 13.657a8 8 0 0 0 -2.343 5.657v64h-16v-76.687l13.657-13.656a8 8 0 0 0 2.343-5.657v-65.376a24 24 0 1 0 -16 0v62.063l-13.657 13.656a8 8 0 0 0 -2.343 5.657v79.245l-64-28.445v-30.852q1 .087 2 .088c6.51 0 12.548-2.655 17.225-4.714 8.914-3.921 11.846-4.524 15.493-1.316a8 8 0 0 0 13.282-6.006v-32a8 8 0 0 0 -2.715-6.006c-11.833-10.412-24.274-4.94-32.507-1.316-8.913 3.922-11.845 4.527-15.493 1.316a8 8 0 0 0 -13.285 6.006v74.8l-16 7.111v-86.6l61.657-61.656a8 8 0 0 0 2.343-5.655v-17.376a24 24 0 1 0 -16 0v14.063l-32 32-16-16v-14.063a24 24 0 1 0 -16 0v17.376a8 8 0 0 0 2.343 5.657l18.343 18.343-18.343 18.343a8 8 0 0 0 -2.343 5.657v97.023l-16 7.111v-80.134a8 8 0 0 0 -2.343-5.657l-29.657-29.656v-38.063a24 24 0 1 0 -16 0v41.376a8 8 0 0 0 2.343 5.657l29.657 29.656v83.932l-1.7.755h-14.3v-72a8 8 0 0 0 -2.343-5.657l-61.657-61.656v-54.063a24 24 0 1 0 -16 0v57.376a8 8 0 0 0 2.343 5.657l61.657 61.656v25.373l-42.343-42.343a8 8 0 0 0 -5.657-2.343h-41.376a24 24 0 1 0 0 16h38.062l51.314 51.314v20.686h-128a8 8 0 0 0 -8 8v224a8 8 0 0 0 8 8h464a8 8 0 0 0 8-8v-224a8 8 0 0 0 -8-8h-80v-44.687l11.313-11.313h14.063a24 24 0 1 0 0-16h-17.376a8 8 0 0 0 -5.657 2.343l-16 16a8 8 0 0 0 -2.343 5.657v48h-16v-60.687l59.313-59.313h22.063a24 24 0 1 0 22.624-32zm-64-72a8 8 0 1 1 -8 8 8.009 8.009 0 0 1 8-8zm-64 32a8 8 0 1 1 -8 8 8.009 8.009 0 0 1 8-8zm-64-32a8 8 0 1 1 -8 8 8.009 8.009 0 0 1 8-8zm-64 16a8 8 0 1 1 -8 8 8.009 8.009 0 0 1 8-8zm-64 16a8 8 0 1 1 -8 8 8.009 8.009 0 0 1 8-8zm-64-32a8 8 0 1 1 -8 8 8.009 8.009 0 0 1 8-8zm-56 152a8 8 0 1 1 8-8 8.009 8.009 0 0 1 -8 8zm416 0a8 8 0 1 1 -8 8 8.009 8.009 0 0 1 8-8zm-144 264v-112h16v112zm-64 0v-112h16v112zm-64 0v-112h16v112zm-32-80h16v48h-16zm16-16h-16v-16h16zm-16 80h16v16h-16zm64-64h16v48h-16zm16-16h-16v-16h16zm-16 80h16v16h-16zm64-64h16v48h-16zm16-16h-16v-16h16zm-16 80h16v16h-16zm64-64h16v48h-16zm16-16h-16v-16h16zm-16 80h16v16h-16zm16-112h-208v-16h208zm-210.3-32 106.3-47.245 106.3 47.245zm133.522-128.678c6.678-2.937 10-4.013 12.778-3.019v15.746c-7.268-.631-14.07 2.36-19.222 4.629-6.677 2.938-10 4.017-12.778 3.019v-15.746c7.264.624 14.07-2.361 19.222-4.629zm-251.222 112.678h114.3l-36 16h-78.3zm0 32h104v144h-8a8 8 0 0 0 -8 8v24h-88zm104 176v-16h240v16zm344 0h-88v-24a8 8 0 0 0 -8-8h-8v-144h104zm0-192h-78.3l-36-16h114.3zm0-152a8 8 0 1 1 8-8 8.009 8.009 0 0 1 -8 8z"/></svg>