<svg id="svg-homeoffice" enable-background="new 0 0 512 512" height="512" viewBox="0 0 512 512" width="512" xmlns="http://www.w3.org/2000/svg"><g><g><path d="m261.923 37.797c-3.486-2.677-8.357-2.677-11.848.002l-127.24 97.763c-3.305 2.538-4.624 6.895-3.283 10.84 1.341 3.946 5.041 6.597 9.208 6.597h254.48c4.167 0 7.867-2.65 9.208-6.597 1.341-3.945.021-8.302-3.283-10.84zm-117.64 100.202 111.717-85.835 111.717 85.835z"/><path d="m366 272.999c4.143 0 7.5-3.357 7.5-7.5v-60c0-4.143-3.357-7.5-7.5-7.5h-220c-4.143 0-7.5 3.357-7.5 7.5v60c0 4.143 3.357 7.5 7.5 7.5zm-116.5-60v9.5c0 4.136-3.364 7.5-7.5 7.5s-7.5-3.364-7.5-7.5v-9.5zm-50.007 0v9.5c0 4.136-3.364 7.5-7.5 7.5s-7.5-3.364-7.5-7.5v-9.5zm-45.993 0h15.993v9.5c0 12.406 10.094 22.5 22.5 22.5s22.5-10.094 22.5-22.5v-9.5h5.007v9.5c0 12.406 10.094 22.5 22.5 22.5s22.5-10.094 22.5-22.5v-9.5h94v45h-205z"/><path d="m373.5 385.5v-60c0-4.143-3.357-7.5-7.5-7.5h-220c-4.143 0-7.5 3.357-7.5 7.5v60c0 4.143 3.357 7.5 7.5 7.5h220c4.143 0 7.5-3.358 7.5-7.5zm-124-52.501v9.5c0 4.136-3.364 7.5-7.5 7.5s-7.5-3.364-7.5-7.5v-9.5zm-50.007 0v9.5c0 4.136-3.364 7.5-7.5 7.5s-7.5-3.364-7.5-7.5v-9.5zm159.007 45.001h-205v-45h15.993v9.5c0 12.406 10.094 22.5 22.5 22.5s22.5-10.094 22.5-22.5v-9.5h5.007v9.5c0 12.406 10.094 22.5 22.5 22.5s22.5-10.094 22.5-22.5v-9.5h94z"/><path d="m504.5 467h-226v-44h95.5c16.267 0 29.5-13.233 29.5-29.5v-76c0-8.736-3.82-16.594-9.874-22 6.054-5.406 9.874-13.264 9.874-22v-76c0-5.269-1.395-10.214-3.825-14.5h49.358c7.606 0 14.095-4.631 16.53-11.797 2.418-7.116.117-14.684-5.862-19.277l-47.426-36.439c-3.285-2.524-7.994-1.905-10.517 1.378-2.523 3.284-1.907 7.993 1.378 10.517l47.426 36.439c.877.674 1.146 1.534.798 2.557-.251.74-.859 1.623-2.327 1.623h-386.066c-1.468 0-2.076-.883-2.327-1.623-.348-1.022-.079-1.883.798-2.557l193.015-148.301c.91-.699 2.184-.699 3.094 0l120.22 92.367c3.286 2.525 7.995 1.906 10.517-1.378 2.523-3.284 1.907-7.993-1.378-10.517l-120.22-92.367c-6.291-4.834-15.08-4.834-21.371 0l-103.585 79.587v-26.213c0-4.143-3.357-7.5-7.5-7.5s-7.5 3.357-7.5 7.5v37.738l-17.23 13.239v-50.977c0-4.143-3.357-7.5-7.5-7.5s-7.5 3.357-7.5 7.5v62.501l-42.201 32.424c-5.979 4.594-8.28 12.161-5.862 19.277 2.436 7.166 8.924 11.797 16.53 11.797h49.358c-2.43 4.286-3.825 9.231-3.825 14.5v25.992c0 4.143 3.357 7.5 7.5 7.5s7.5-3.357 7.5-7.5v-25.992c0-7.995 6.505-14.5 14.5-14.5h236c7.995 0 14.5 6.505 14.5 14.5v76c0 7.995-6.505 14.5-14.5 14.5h-236c-7.995 0-14.5-6.505-14.5-14.5v-17.5c0-4.143-3.357-7.5-7.5-7.5s-7.5 3.357-7.5 7.5v17.5c0 8.736 3.82 16.594 9.874 22-6.054 5.406-9.874 13.264-9.874 22v76c0 16.267 13.233 29.5 29.5 29.5h95.5v44h-226c-4.143 0-7.5 3.357-7.5 7.5v30c0 4.143 3.357 7.5 7.5 7.5h376.738c4.143 0 7.5-3.357 7.5-7.5s-3.357-7.5-7.5-7.5h-75.738v-15h188.5v15h-80.809c-4.143 0-7.5 3.357-7.5 7.5s3.357 7.5 7.5 7.5h88.309c4.143 0 7.5-3.357 7.5-7.5v-30c0-4.141-3.357-7.498-7.5-7.498zm-381-73.5v-76c0-7.995 6.505-14.5 14.5-14.5h236c7.995 0 14.5 6.505 14.5 14.5v76c0 7.995-6.505 14.5-14.5 14.5h-236c-7.995 0-14.5-6.505-14.5-14.5zm140 29.5v14h-15v-14zm-248.5 59h188.5v15h-188.5zm278.5 15h-75v-15h22.5c4.143 0 7.5-3.357 7.5-7.5v-22.5h15v22.5c0 4.143 3.357 7.5 7.5 7.5h22.5z"/></g></g></svg>
