<?xml version="1.0" encoding="UTF-8" standalone="no"?>
<svg
   xmlns:dc="http://purl.org/dc/elements/1.1/"
   xmlns:cc="http://creativecommons.org/ns#"
   xmlns:rdf="http://www.w3.org/1999/02/22-rdf-syntax-ns#"
   xmlns:svg="http://www.w3.org/2000/svg"
   xmlns="http://www.w3.org/2000/svg"
   xmlns:sodipodi="http://sodipodi.sourceforge.net/DTD/sodipodi-0.dtd"
   xmlns:inkscape="http://www.inkscape.org/namespaces/inkscape"
   width="45.031601"
   height="45"
   viewBox="0 0 45.031601 45"
   fill="none"
   version="1.1"
   id="svg10"
   sodipodi:docname="logo-13.svg"
   inkscape:version="1.0.2 (1.0.2+r75+1)">
  <metadata
     id="metadata16">
    <rdf:RDF>
      <cc:Work
         rdf:about="">
        <dc:format>image/svg+xml</dc:format>
        <dc:type
           rdf:resource="http://purl.org/dc/dcmitype/StillImage" />
        <dc:title />
      </cc:Work>
    </rdf:RDF>
  </metadata>
  <defs
     id="defs14" />
  <sodipodi:namedview
     pagecolor="#ffffff"
     bordercolor="#666666"
     borderopacity="1"
     objecttolerance="10"
     gridtolerance="10"
     guidetolerance="10"
     inkscape:pageopacity="0"
     inkscape:pageshadow="2"
     inkscape:window-width="1670"
     inkscape:window-height="785"
     id="namedview12"
     showgrid="false"
     fit-margin-top="0"
     fit-margin-left="0"
     fit-margin-right="0"
     fit-margin-bottom="0"
     inkscape:zoom="8"
     inkscape:cx="27.064573"
     inkscape:cy="30.668039"
     inkscape:window-x="72"
     inkscape:window-y="27"
     inkscape:window-maximized="0"
     inkscape:current-layer="svg10"
     inkscape:document-rotation="0" />
  <path
     id="path4"
     d="m 0,27.7899 c 0,2.2601 0.4451,4.498 1.31,6.586 0.8649,2.0881 2.1326,3.9853 3.7307,5.5834 1.5981,1.5981 3.4953,2.8658 5.5833,3.7306 C 12.712,44.5549 14.95,45 17.21,45 V 27.7899 Z m 0,0 c 0,-2.2601 0.4451,-4.498 1.31,-6.586 0.8649,-2.088 2.1326,-3.9852 3.7307,-5.5833 1.5981,-1.5982 3.4953,-2.8658 5.5833,-3.7307 2.088,-0.8649 4.326,-1.3101 6.586,-1.3101 v 17.2101 z"
     style="fill:#4b0c53;fill-opacity:1" />
  <path
     d="m 36.451621,27.829667 c 0,2.2601 -0.4446,4.498 -1.3094,6.586 -0.8649,2.0881 -2.1326,3.9853 -3.7309,5.5834 -1.5981,1.5981 -3.4954,2.8658 -5.5834,3.7306 -2.088,0.865 -4.3259,1.3101 -6.586,1.3101 v -17.2101 z"
     fill="#442781"
     id="path6"
     style="fill:#4b0c53;fill-opacity:1" />
  <path
     d="m 45.0316,12.922 c 0,7.1366 -5.786,12.922 -12.9224,12.922 H 19.1872 V 12.922 C 19.1872,5.7854 24.9726,0 32.1092,0 39.2456,0 45.0316,5.7854 45.0316,12.922 Z"
     fill="#ff7917"
     id="path8"
     style="fill:#3fd0b2;fill-opacity:1" />
</svg>
