<?xml version="1.0" encoding="UTF-8" standalone="no"?>
<svg
   xmlns:dc="http://purl.org/dc/elements/1.1/"
   xmlns:cc="http://creativecommons.org/ns#"
   xmlns:rdf="http://www.w3.org/1999/02/22-rdf-syntax-ns#"
   xmlns:svg="http://www.w3.org/2000/svg"
   xmlns="http://www.w3.org/2000/svg"
   xmlns:sodipodi="http://sodipodi.sourceforge.net/DTD/sodipodi-0.dtd"
   xmlns:inkscape="http://www.inkscape.org/namespaces/inkscape"
   width="512"
   height="512"
   viewBox="0 0 512 512"
   fill="none"
   version="1.1"
   id="svg10"
   sodipodi:docname="logo-13.svg"
   inkscape:version="1.0.2 (1.0.2+r75+1)">
  <metadata
     id="metadata16">
    <rdf:RDF>
      <cc:Work
         rdf:about="">
        <dc:format>image/svg+xml</dc:format>
        <dc:type
           rdf:resource="http://purl.org/dc/dcmitype/StillImage" />
        <dc:title></dc:title>
      </cc:Work>
    </rdf:RDF>
  </metadata>
  <defs
     id="defs14" />
  <sodipodi:namedview
     pagecolor="#ffffff"
     bordercolor="#666666"
     borderopacity="1"
     objecttolerance="10"
     gridtolerance="10"
     guidetolerance="10"
     inkscape:pageopacity="0"
     inkscape:pageshadow="2"
     inkscape:window-width="1670"
     inkscape:window-height="785"
     id="namedview12"
     showgrid="false"
     fit-margin-top="0"
     fit-margin-left="0"
     fit-margin-right="0"
     fit-margin-bottom="0"
     inkscape:zoom="0.70710678"
     inkscape:cx="218.61393"
     inkscape:cy="376.08928"
     inkscape:window-x="72"
     inkscape:window-y="27"
     inkscape:window-maximized="0"
     inkscape:current-layer="svg10"
     inkscape:document-rotation="0"
     inkscape:lockguides="true" />
  <path
     id="path4"
     d="m 0,315.90814 c 0,25.69221 5.0607,51.13206 14.89443,74.86788 9.83373,23.73696 24.24722,45.30382 42.41729,63.4706 18.17007,18.16677 39.74084,32.57764 63.48097,42.40846 23.74013,9.83309 49.18572,14.89286 74.88146,14.89286 v -195.6398 z m 0,0 c 0,-25.69221 5.0607,-51.13206 14.89443,-74.86788 9.83373,-23.73583 24.24722,-45.30269 42.41729,-63.46946 18.17007,-18.16791 39.74084,-32.57765 63.48097,-42.4096 23.74013,-9.83195 49.18572,-14.89287 74.88146,-14.89287 v 195.63981 z"
     style="fill:#4b0c53;fill-opacity:1;stroke-width:11.3688"
     inkscape:export-xdpi="300"
     inkscape:export-ydpi="300" />
  <path
     d="m 414.44741,316.3602 c 0,25.69221 -5.05501,51.13206 -14.88761,74.86788 -9.83373,23.73696 -24.24722,45.30382 -42.41956,63.4706 -18.17007,18.16677 -39.74198,32.57764 -63.48211,42.40846 C 269.918,506.94023 244.47354,512 218.77667,512 V 316.3602 Z"
     fill="#442781"
     id="path6"
     style="fill:#4b0c53;fill-opacity:1;stroke-width:11.3688"
     inkscape:export-xdpi="300"
     inkscape:export-ydpi="300" />
  <path
     d="m 512,146.89384 c 0,81.12695 -65.78563,146.89383 -146.92502,146.89383 H 218.1545 V 146.89384 C 218.1545,65.76688 283.93331,0 365.07498,0 446.21437,0 512,65.76688 512,146.89384 Z"
     fill="#ff7917"
     id="path8"
     style="fill:#3fd0b2;fill-opacity:1;stroke-width:11.3688"
     inkscape:export-xdpi="300"
     inkscape:export-ydpi="300" />
</svg>
