<?xml version="1.0" encoding="iso-8859-1"?>
<!-- Generator: Adobe Illustrator 19.0.0, SVG Export Plug-In . SVG Version: 6.00 Build 0)  -->
<svg version="1.1" id="svg-map" xmlns="http://www.w3.org/2000/svg" xmlns:xlink="http://www.w3.org/1999/xlink" x="0px" y="0px"
	 viewBox="0 0 512 512" style="enable-background:new 0 0 512 512;" xml:space="preserve">
<g>
	<g>
		<path d="M501.78,12.561c-6.293-3.533-14.027-3.393-20.207,0.373L340.72,98.941L180.16,12.394c-6.26-3.38-13.84-3.173-19.913,0.533
			l-150.667,92C3.627,108.561,0,115.034,0,122.001v360c0,7.233,3.907,13.9,10.213,17.447c6.307,3.533,14.033,3.4,20.207-0.373
			l140.867-86.02l160.553,86.553c2.967,1.6,6.233,2.393,9.493,2.393c3.62,0,7.227-0.98,10.42-2.927l150.667-92
			c5.953-3.633,9.58-10.1,9.58-17.073v-360C512,22.767,508.093,16.101,501.78,12.561z M472,378.781l-131.287,80.16l-160.56-86.547
			c-2.96-1.6-6.227-2.393-9.487-2.393c-3.613,0-7.227,0.987-10.42,2.933L40,446.354V133.221l131.287-80.16l160.56,86.547
			c6.26,3.38,13.833,3.173,19.913-0.533L472,65.647V378.781z"/>
	</g>
</g>
<g>
	<g>
		<rect x="150.667" y="30.001" width="40" height="360"/>
	</g>
</g>
<g>
	<g>
		<rect x="321.333" y="122.001" width="40" height="360"/>
	</g>
</g>
<g>
</g>
<g>
</g>
<g>
</g>
<g>
</g>
<g>
</g>
<g>
</g>
<g>
</g>
<g>
</g>
<g>
</g>
<g>
</g>
<g>
</g>
<g>
</g>
<g>
</g>
<g>
</g>
<g>
</g>
</svg>
