<?xml version="1.0"?>
<svg id="svg-repair" xmlns="http://www.w3.org/2000/svg" viewBox="0 0 64 64" width="512" height="512"><g id="Mechanic"><rect x="19" y="19" width="2" height="2"/><rect x="29" y="19" width="2" height="2"/><path d="M29,25H27a2,2,0,0,1-4,0H21a4,4,0,0,0,8,0Z"/><path d="M57.3,12a1,1,0,0,0-1.671.45l-1.372,5.121-3.287.672-2.509-2.225L49.83,10.9a1,1,0,0,0-1.222-1.225,8.987,8.987,0,0,0-4.436,14.613L40.07,39.6a11.216,11.216,0,0,0-1.791-.746L30,36.265V32.794A10.992,10.992,0,0,0,36,23V22a2.99,2.99,0,0,0,1.406-5.634,2.521,2.521,0,0,0,.158-.259l.1-.206A2.982,2.982,0,0,0,36,11.749V6.64A3.014,3.014,0,0,0,33.587,3.7L26.759,2.327a9.34,9.34,0,0,0-3.527,0L16.412,3.7A3.014,3.014,0,0,0,14,6.64v5.109A2.982,2.982,0,0,0,12.333,15.9l.1.2a2.838,2.838,0,0,0,.155.263A2.99,2.99,0,0,0,14,22v1a11,11,0,0,0,6,9.786v3.479l-8.277,2.589A10.943,10.943,0,0,0,4,49.35V61a1,1,0,0,0,1,1H45a1,1,0,0,0,1-1V59H44v1H39V57H37v3H13V49H11V60H6V49.35a8.95,8.95,0,0,1,6.318-8.586L15,39.925V46a5.006,5.006,0,0,0,5,5H30a4.968,4.968,0,0,0,3.662-1.622A8.975,8.975,0,0,0,36.3,55.629a1,1,0,0,0,1.671-.45l1.372-5.121,3.286-.673,2.51,2.225-1.372,5.121a1,1,0,0,0,.966,1.259,1.02,1.02,0,0,0,.255-.033,8.985,8.985,0,0,0,4.436-14.613l4.412-16.467A8.986,8.986,0,0,0,57.3,12ZM38.729,41.181A9.047,9.047,0,0,0,35,44.573V39.925l2.681.839A8.965,8.965,0,0,1,38.729,41.181Zm-8.67-2.8-.772,4.027-2.674-1.6,2.666-2.666ZM15.3,15.748a1,1,0,0,1-1.074-.539l-.1-.2a1,1,0,0,1,.743-1.436l8.768-1.348a8.964,8.964,0,0,1,2.736,0l8.768,1.348a1,1,0,0,1,.744,1.434l-.1.206a1,1,0,0,1-1.073.537l-8.094-1.473a8.969,8.969,0,0,0-3.218,0ZM36,20V18a1,1,0,0,1,0,2ZM34,6.64v4.733l-2.575-.4,1.09-5.453.676.136A1.007,1.007,0,0,1,34,6.64ZM23.618,4.292a7.274,7.274,0,0,1,2.755,0l4.182.84-1.109,5.543-2.773-.427a10.913,10.913,0,0,0-3.346,0l-2.773.427L19.445,5.13ZM16.808,5.66l.677-.136,1.09,5.453-2.575.4V6.64A1.007,1.007,0,0,1,16.808,5.66ZM13,19a1,1,0,0,1,1-1v2A1,1,0,0,1,13,19Zm3,4V17.652l7.748-1.408a6.977,6.977,0,0,1,2.5,0L34,17.652V23a9,9,0,0,1-18,0Zm9,11a11.04,11.04,0,0,0,3-.421v3.007l-3,3-3-3V33.574A10.966,10.966,0,0,0,25,34Zm-4.279,4.135L23.387,40.8l-2.674,1.6-.772-4.027ZM30,49H20a3,3,0,0,1-3-3V39.3l1.019-.319,1,5.208a1,1,0,0,0,1.5.669L25,42.166l4.485,2.691a1,1,0,0,0,1.5-.669l1-5.208L33,39.3V46A3,3,0,0,1,30,49ZM57.7,20.173a7.019,7.019,0,0,1-4.949,4.944,1,1,0,0,0-.706.707l-4.7,17.537a1,1,0,0,0,.258.965,6.99,6.99,0,0,1-1.384,10.967l1.008-3.762a1,1,0,0,0-.3-1.007l-3.347-2.967a1,1,0,0,0-.663-.252,1.062,1.062,0,0,0-.2.02l-4.381.9a1,1,0,0,0-.765.72l-1.007,3.762a6.989,6.989,0,0,1,4.284-10.189,1,1,0,0,0,.706-.707l4.7-17.538a1,1,0,0,0-.258-.965,6.991,6.991,0,0,1,1.385-10.967L46.366,16.1a1,1,0,0,0,.3,1.006l3.346,2.967a1,1,0,0,0,.863.232l4.382-.9a1,1,0,0,0,.765-.721l1.008-3.761A6.992,6.992,0,0,1,57.7,20.173Z"/></g></svg>
