<svg xmlns="http://www.w3.org/2000/svg" xmlns:xlink="http://www.w3.org/1999/xlink" version="1.1" xml:space="preserve" class="u-svg-content" viewBox="0 0 512 512" x="0px" y="0px" id="svg-strategy" style="enable-background:new 0 0 512 512;"><g><g><path d="M386.607,304.394L367.213,285l19.393-19.393c5.859-5.858,5.859-15.356,0-21.214c-5.857-5.858-15.355-5.858-21.213,0    L346,263.787l-19.394-19.394c-5.857-5.858-15.355-5.858-21.213,0c-5.858,5.858-5.858,15.355,0,21.213L324.787,285l-19.393,19.393    c-5.858,5.858-5.858,15.355,0,21.213c5.857,5.857,15.355,5.858,21.213,0L346,306.213l19.394,19.394    c5.857,5.857,15.355,5.858,21.213,0C392.465,319.749,392.465,310.252,386.607,304.394z"></path>
</g>
</g><g><g><path d="M206.607,184.394L187.213,165l19.393-19.393c5.858-5.858,5.858-15.355,0-21.213c-5.857-5.858-15.355-5.858-21.213,0    L166,143.787l-19.394-19.394c-5.857-5.858-15.355-5.858-21.213,0c-5.858,5.858-5.858,15.355,0,21.213L144.787,165l-19.393,19.393    c-5.859,5.858-5.859,15.356,0,21.214c5.857,5.857,15.355,5.858,21.213,0L166,186.213l19.394,19.394    c5.857,5.857,15.355,5.858,21.213,0C212.465,199.749,212.465,190.252,206.607,184.394z"></path>
</g>
</g><g><g><path d="M416.606,124.394l-30-30c-0.029-0.029-0.06-0.052-0.089-0.081c-5.916-5.822-15.373-5.668-21.124,0.081l-30,30    c-5.858,5.858-5.858,15.355,0,21.213c5.857,5.858,15.355,5.858,21.213,0l4.394-4.394V180H256c-8.284,0-15,6.716-15,15v75h-32.58    c-6.192-17.459-22.865-30-42.42-30c-24.813,0-45,20.187-45,45s20.187,45,45,45c19.555,0,36.228-12.541,42.42-30H256    c8.284,0,15-6.716,15-15v-75h105c8.284,0,15-6.716,15-15v-53.787l4.394,4.394C398.322,148.535,402.161,150,406,150    s7.678-1.465,10.606-4.393C422.464,139.749,422.464,130.252,416.606,124.394z M166,300c-8.271,0-15-6.729-15-15s6.729-15,15-15    s15,6.729,15,15S174.271,300,166,300z"></path>
</g>
</g><g><g><path d="M467,0H45C20.187,0,0,20.187,0,45c0,19.555,12.541,36.228,30,42.42V345c0,24.813,20.187,45,45,45h166v34.58    c-17.459,6.192-30,22.865-30,42.42c0,24.813,20.187,45,45,45s45-20.187,45-45c0-19.555-12.541-36.228-30-42.42V390h166    c24.813,0,45-20.187,45-45V87.42c17.459-6.192,30-22.865,30-42.42C512,20.187,491.813,0,467,0z M256,482c-8.271,0-15-6.729-15-15    s6.729-15,15-15s15,6.729,15,15S264.271,482,256,482z M452,345c0,8.271-6.729,15-15,15H75c-8.271,0-15-6.729-15-15V90h392V345z     M467,60H45c-8.271,0-15-6.729-15-15s6.729-15,15-15h422c8.271,0,15,6.729,15,15S475.271,60,467,60z"></path>
</g>
</g></svg>
