<?xml version="1.0" encoding="UTF-8" standalone="no"?>
<svg
   xmlns:dc="http://purl.org/dc/elements/1.1/"
   xmlns:cc="http://creativecommons.org/ns#"
   xmlns:rdf="http://www.w3.org/1999/02/22-rdf-syntax-ns#"
   xmlns:svg="http://www.w3.org/2000/svg"
   xmlns="http://www.w3.org/2000/svg"
   version="1.1"
   id="svg-trust"
   class="svg-inline"
   width="512"
   height="512"
   viewBox="0 0 512.00001 512">
  <metadata
     id="metadata8">
    <rdf:RDF>
      <cc:Work
         rdf:about="">
        <dc:format>image/svg+xml</dc:format>
        <dc:type
           rdf:resource="http://purl.org/dc/dcmitype/StillImage" />
        <dc:title></dc:title>
      </cc:Work>
    </rdf:RDF>
  </metadata>
  <defs
     id="defs6" />
  <g
     id="g10"
     transform="matrix(4.2626044,0,0,4.4124208,-7.8428515,-22.112071)">
    <path
       style="fill:#000000"
       d="m 14.506587,120.38073 c -1.565292,-1.56529 -0.456763,-5.69708 2.25641,-8.41025 2.455319,-2.45532 3.727354,-2.92308 7.949109,-2.92308 4.556384,0 5.272271,-0.32284 7.661221,-3.45491 1.449354,-1.9002 3.250731,-5.5002 4.00306,-8.000004 1.367871,-4.54509 1.367871,-4.54509 -13.661221,-4.54509 -15.0290919,0 -15.0290919,0 -17.9521689,-2.92308 -2.844001,-2.844 -2.923077,-3.19568 -2.923077,-13.000001 0,-9.410256 0.132316,-10.076923 2,-10.076923 1.851852,0 2,0.666667 2,9 0,14.289924 -5.53764003,13.000004 55.8088709,13.000004 43.133939,0 52.133899,-0.23736 53.749999,-1.41758 1.79332,-1.30963 1.9792,-3.1181 2.44113,-23.75 0.42454,-18.962155 0.72637,-22.332424 2,-22.332424 1.28163,0 1.53915,3.32041 1.76892,22.808 0.26893,22.808004 0.26893,22.808004 -2.67307,25.750004 -2.942,2.942 -2.942,2.942 -17.91362,2.942 -14.971609,0 -14.971609,0 -14.142469,3.6763 0.45603,2.02197 2.11491,5.509474 3.68641,7.750004 2.67116,3.80835 3.23588,4.1076 8.66966,4.59407 6.781829,0.60716 10.953309,4.15353 10.409049,8.8492 -0.30488,2.63043 -0.30488,2.63043 -34.054879,2.89373 -33.24485,0.25936 -33.750001,0.23317 -33.750001,-1.75 0,-1.97512 0.597294,-2.0133 31.500001,-2.0133 30.560669,0 34.388349,-0.38383 29.565739,-2.96482 -2.64595,-1.41607 -79.485529,-1.41607 -82.131481,0 -3.950391,2.11419 -1.779714,2.96482 7.565741,2.96482 8.833333,0 9.5,0.14035 9.5,2 0,1.88235 -0.666667,2 -11.333333,2 -6.233334,0 -11.633334,-0.3 -12,-0.66667 z m 70.832044,-15.93178 c -1.34476,-2.52916 -2.73218,-6.129164 -3.08316,-8.000014 -0.63813,-3.40154 -0.63813,-3.40154 -20.41555,-3.40154 -19.777419,0 -19.777419,0 -20.415553,3.40154 -0.350973,1.87085 -1.738394,5.470854 -3.083156,8.000014 -2.445022,4.59845 -2.445022,4.59845 23.498709,4.59845 25.94373,0 25.94373,0 23.49871,-4.59845 z M 51.948961,75.001329 c -8.390953,-7.953937 -8.390953,-7.953937 -14.195206,-7.953937 -5.804253,0 -5.804253,0 -6.109044,4.75 -0.300132,4.677385 -0.360497,4.754648 -3.94871,5.054041 -2.021832,0.168698 -4.427857,1.170283 -5.404988,2.25 -3.655941,4.03977 -10.451093,1.290918 -10.451093,-4.227794 0,-5.248381 6.928195,-7.773047 10.5,-3.826247 3.267773,3.610849 5.35162,2.604639 5.695209,-2.75 0.304791,-4.75 0.304791,-4.75 5.969905,-5.047371 5.665114,-0.297371 5.665114,-0.297371 3.262045,-4.5 -1.321687,-2.311446 -2.408489,-4.990129 -2.415114,-5.952629 -0.01858,-2.70001 -10.02323,-2.500109 -12.512045,0.25 -3.699534,4.087939 -10.5,1.384752 -10.5,-4.173753 0,-5.248381 6.928195,-7.773047 10.5,-3.826247 1.335538,1.475753 3.079967,2 6.654988,2 4.71668,0 4.845012,-0.07946 4.845012,-3 0,-2.259403 0.459742,-3 1.862319,-3 1.518977,0 1.985106,1.044731 2.52833,5.666725 0.963807,8.200488 4.571801,13.911661 14.674502,23.228601 l 8.93485,8.239912 8.93485,-8.239912 c 12.47129,-11.501304 14.33363,-15.20935 14.88596,-29.638879 0.37375,-9.764364 0.22188,-11.256447 -1.14575,-11.256447 -4.35983,0 -12.10357,-2.488268 -17.09187,-5.492068 -5.58319,-3.362022 -5.58319,-3.362022 -11.16638,0 -4.90105,2.951257 -12.722165,5.492068 -16.905667,5.492068 -0.884857,0 -1.503263,1.363505 -1.700779,3.75 -0.310365,3.75 -0.310365,3.75 -10.810365,3.75 -10.5,0 -10.5,0 -10.800321,-4.640553 -0.196987,-3.043833 -0.971166,-5.247658 -2.25,-6.404987 -4.0430839,-3.658941 -1.297387,-10.45446 4.224074,-10.45446 5.248381,0 7.773047,6.928195 3.826247,10.5 -1.107215,1.002016 -2,3.079967 -2,4.654988 0,2.845012 0,2.845012 6.939635,2.845012 6.939634,0 6.939634,0 7.25,-3.742613 0.310365,-3.742613 0.310365,-3.742613 6.991155,-4.948083 6.907361,-1.246352 15.465231,-4.972928 17.754471,-7.731296 1.46573,-1.766094 4.62333,-2.101247 5.55741,-0.589873 1.48427,2.401606 10.53923,6.572333 17.45976,8.04199 7.54757,1.602816 7.54757,1.602816 7.85794,5.286346 0.31036,3.683529 0.31036,3.683529 7.25,3.683529 6.939629,0 6.939629,0 6.939629,-2.845012 0,-1.575021 -0.89278,-3.652972 -2,-4.654988 -4.087939,-3.699534 -1.38475,-10.5 4.17375,-10.5 5.24838,0 7.77305,6.928195 3.82625,10.5 -1.47575,1.335538 -2,3.079967 -2,6.654988 0,4.845012 0,4.845012 -8.999999,4.845012 -9,0 -9,0 -9,5 0,5 0,5 4.84501,5 3.57502,0 5.319449,-0.524247 6.654989,-2 3.69953,-4.087939 10.5,-1.384752 10.5,4.173753 0,5.248381 -6.9282,7.773047 -10.5,3.826247 -2.488809,-2.750109 -12.493459,-2.95001 -12.512039,-0.25 -0.007,0.9625 -1.09343,3.641183 -2.41512,5.952629 -2.40307,4.202629 -2.40307,4.202629 3.26205,4.5 5.66511,0.297371 5.66511,0.297371 5.9699,5.047371 0.34359,5.354639 2.42744,6.360849 5.695209,2.75 3.57023,-3.94506 10.5,-1.418175 10.5,3.828741 0,2.890186 -3.5645,2.944598 -4.3173,0.0659 -0.30281,-1.157946 -1.11467,-1.917321 -1.80413,-1.6875 -2.1826,0.727531 -2.17253,2.903222 0.0161,3.475556 1.20032,0.3139 2.10533,1.360154 2.10533,2.433934 0,2.570881 -4.13498,2.496686 -6.5,-0.116631 -1.21215,-1.339408 -3.079969,-2 -5.654989,-2 -3.84501,0 -3.84501,0 -3.84501,-5 0,-5 0,-5 -5.78231,-5 -5.78232,0 -5.78232,0 -14.412,8 -4.74632,4.4 -9.23178,7.979271 -9.96768,7.953937 -0.73591,-0.02533 -5.11394,-3.625335 -9.72897,-8 z m -32.55519,0.958931 c 1.030521,-1.667419 -1.287209,-3.57951 -2.666719,-2.2 -1.153924,1.153924 -0.431721,3.287132 1.112868,3.287132 0.485081,0 1.184314,-0.48921 1.553851,-1.087132 z m 0,-26 c 1.030521,-1.667419 -1.287209,-3.57951 -2.666719,-2.2 -1.153924,1.153924 -0.431721,3.287132 1.112868,3.287132 0.485081,0 1.184314,-0.48921 1.553851,-1.087132 z m 87.999999,0 c 1.03052,-1.667419 -1.28721,-3.57951 -2.66672,-2.2 -1.15392,1.153924 -0.43172,3.287132 1.11287,3.287132 0.48508,0 1.18431,-0.48921 1.55385,-1.087132 z m -87.999999,-28 c 1.030521,-1.667419 -1.287209,-3.57951 -2.666719,-2.2 -1.153924,1.153924 -0.431721,3.287132 1.112868,3.287132 0.485081,0 1.184314,-0.48921 1.553851,-1.087132 z m 87.999999,0 c 1.03052,-1.667419 -1.28721,-3.57951 -2.66672,-2.2 -1.15392,1.153924 -0.43172,3.287132 1.11287,3.287132 0.48508,0 1.18431,-0.48921 1.55385,-1.087132 z M 52.721051,64.658801 c -9.407615,-9.08529 -11.095258,-12.889784 -10.677417,-24.07035 0.296286,-7.92802 0.296286,-7.92802 5.900737,-9.58875 3.08244,-0.913401 7.46994,-2.709199 9.75,-3.99066 4.14555,-2.329931 4.14555,-2.329931 8.2911,0 2.28006,1.281461 6.66649,3.078296 9.74764,3.992965 3.82294,1.134879 5.71416,2.245028 5.955,3.495596 0.31177,1.618899 -0.18178,1.772295 -4.23307,1.315656 -2.52228,-0.284299 -7.04357,-1.719294 -10.04729,-3.188879 -5.46132,-2.671973 -5.46132,-2.671973 -9.26457,-0.735894 -2.0918,1.064844 -5.71576,2.507445 -8.05326,3.205781 -4.25,1.269701 -4.25,1.269701 -4.22804,6.861414 0.0295,7.505512 2.46486,12.334235 9.86536,19.560409 l 6.11268,5.968696 6.11268,-5.968696 c 6.60507,-6.449485 9.83063,-12.079274 9.86536,-17.218697 0.0174,-2.576013 0.43672,-3.25 2.02196,-3.25 1.68972,0 1.99659,0.659346 1.97804,4.25 -0.0121,2.3375 -0.89064,6.163753 -1.95236,8.502784 -2.08187,4.586512 -15.54625,18.184359 -18.02568,18.20436 -0.825,0.0067 -4.92849,-3.298926 -9.11887,-7.345735 z M 1.8399201,36.970469 c 0,-26.076923 0,-26.076923 2.923077,-29.0000002 2.923077,-2.923077 2.923077,-2.923077 57.0769239,-2.923077 65.512109,0 59.999999,-1.738434 59.999999,18.9230772 0,12.410256 -0.10196,13.076923 -2,13.076923 -1.88889,0 -2,-0.666667 -2,-12 0,-10.666667 -0.22222,-12.222222 -2,-14 -1.94872,-1.9487182 -3.33333,-2.0000002 -53.999999,-2.0000002 -50.666668,0 -52.0512829,0.05128 -54.0000009,2.0000002 -1.893333,1.893333 -2,3.333333 -2,27 0,24.333333 -0.05333,25 -2,25 -1.948869,0 -2,-0.666667 -2,-26.076923 z M 54.903801,51.613305 c -5.00811,-5.167067 -2.53702,-9.237937 2.64976,-4.365205 2.34255,2.200707 2.34255,2.200707 6.892,-3 4.7928,-5.478887 6.08955,-6.158598 7.03734,-3.688714 0.64564,1.682525 -9.9885,14.488006 -12.03138,14.488006 -0.67059,0 -2.71707,-1.545339 -4.54772,-3.434087 z"
       id="path837" />
  </g>
</svg>
